<svg xmlns="http://www.w3.org/2000/svg" xmlns:xlink="http://www.w3.org/1999/xlink" viewBox="0 0 800 1000" preserveAspectRatio="xMidYMid slice">
  <!-- Временная картинка: полировка кузова. Замените фотографией работы. -->
  <defs><linearGradient id="panelP" x1="0" y1="0" x2="1" y2="1"><stop offset="0" stop-color="#561363"/><stop offset="0.5" stop-color="#36083e"/><stop offset="1" stop-color="#0f0212"/></linearGradient>
    <linearGradient id="lampP" x1="0" y1="0" x2="0" y2="1"><stop offset="0" stop-color="#fff" stop-opacity="0"/><stop offset="0.5" stop-color="#fdf4ff" stop-opacity="0.9"/><stop offset="1" stop-color="#fff" stop-opacity="0"/></linearGradient>
    <radialGradient id="pad" cx="0.4" cy="0.34" r="0.75"><stop offset="0" stop-color="#e78fff"/><stop offset="0.6" stop-color="#d846ff"/><stop offset="1" stop-color="#9e1db3"/></radialGradient>
    <linearGradient id="tool" x1="0" y1="0" x2="1" y2="1"><stop offset="0" stop-color="#3A4252"/><stop offset="1" stop-color="#05070A"/></linearGradient>
    <radialGradient id="dimP" cx="0.5" cy="0.45" r="0.85"><stop offset="0.5" stop-color="#000" stop-opacity="0"/><stop offset="1" stop-color="#000" stop-opacity="0.7"/></radialGradient>
    <filter id="blurP"><feGaussianBlur stdDeviation="3"/></filter><filter id="shadowP"><feGaussianBlur stdDeviation="16"/></filter>
    <clipPath id="dull"><path d="M-10 -10H470C420 300 400 620 430 1010H-10Z"/></clipPath></defs>
  <rect width="800" height="1000" fill="url(#panelP)"/>
  <!-- Слева кузов ещё в «паутинке», справа — уже отполирован -->
  <g clip-path="url(#dull)"><rect width="800" height="1000" fill="#fff" opacity="0.06"/><g fill="none" stroke="#f7dcff" stroke-width="1.3"><path d="M403 200.2A119.3 119.3 0 0 1 491.8 349.7" opacity="0.33"/><path d="M443.8 231.8A92.4 92.4 0 0 1 425.9 367.4" opacity="0.22"/><path d="M161.2 468.4A137.4 137.4 0 0 1 65.2 400.8" opacity="0.27"/><path d="M391.3 522.3A183.6 183.6 0 0 1 299.1 608.3" opacity="0.23"/><path d="M261.3 276.3A90.1 90.1 0 0 1 184.6 283.7" opacity="0.12"/><path d="M-65 274.2A87.5 87.5 0 0 1 -26.6 167.4" opacity="0.23"/><path d="M263.8 354A106.1 106.1 0 0 1 360.3 411.7" opacity="0.23"/><path d="M311.8 332.4A99.9 99.9 0 0 1 424.9 228.7" opacity="0.31"/><path d="M445.5 384.1A146.5 146.5 0 0 1 429.2 574.4" opacity="0.28"/><path d="M210.4 418.4A170.6 170.6 0 0 1 -59.7 371.7" opacity="0.32"/><path d="M65.5 458.7A99.3 99.3 0 0 1 221.8 492.4" opacity="0.13"/><path d="M462.8 152.9A156.2 156.2 0 0 1 369.6 297.9" opacity="0.31"/><path d="M93.8 66.8A41.2 41.2 0 0 1 82.7 119" opacity="0.14"/><path d="M557.3 527.6A168.5 168.5 0 0 1 341.5 707.6" opacity="0.32"/><path d="M314.3 125.1A123.8 123.8 0 0 1 521.3 174.4" opacity="0.13"/><path d="M171.1 309.7A121 121 0 0 1 69.2 489.7" opacity="0.27"/><path d="M50.4 323.9A107.1 107.1 0 0 1 206 278.6" opacity="0.33"/><path d="M286.9 418.3A93.2 93.2 0 0 1 304 545.2" opacity="0.21"/><path d="M316.4 110.5A179.3 179.3 0 0 1 204.3 249.3" opacity="0.30"/><path d="M24.4 495A46.8 46.8 0 0 1 77.4 500.8" opacity="0.17"/><path d="M201.9 491.5A136.7 136.7 0 0 1 150.5 589.1" opacity="0.32"/><path d="M190.4 207.9A164.5 164.5 0 0 1 173.6 483" opacity="0.14"/><path d="M287.7 200.4A151 151 0 0 1 154.2 420.7" opacity="0.31"/><path d="M-109.3 246.5A156.6 156.6 0 0 1 -58.4 53.5" opacity="0.17"/><path d="M91.5 275.1A72.5 72.5 0 0 1 103.9 383.3" opacity="0.22"/><path d="M177.5 426.7A99 99 0 0 1 314.9 390" opacity="0.12"/><path d="M258.8 223.8A42 42 0 0 1 222.7 238.4" opacity="0.15"/><path d="M-13.1 58.8A151 151 0 0 1 129.5 63.7" opacity="0.32"/><path d="M98.6 365.7A123.2 123.2 0 0 1 131.6 519.7" opacity="0.28"/><path d="M195.3 522.9A124.5 124.5 0 0 1 89.4 563.1" opacity="0.13"/><path d="M134.7 161.6A188.3 188.3 0 0 1 193.8 -19.3" opacity="0.21"/><path d="M4.1 45.6A175.7 175.7 0 0 1 169.8 64.9" opacity="0.16"/><path d="M290.4 376A83.2 83.2 0 0 1 288.6 287.6" opacity="0.22"/><path d="M39.8 420.4A176.3 176.3 0 0 1 107.7 259.4" opacity="0.26"/><path d="M208.3 347.6A56.5 56.5 0 0 1 293 360.1" opacity="0.31"/><path d="M367.2 132A157.5 157.5 0 0 1 355 246.7" opacity="0.17"/><path d="M200.1 724.8A155.9 155.9 0 0 1 106.9 599.7" opacity="0.25"/><path d="M251.9 223.6A116.3 116.3 0 0 1 270.9 139" opacity="0.29"/><path d="M154.9 200.6A122.3 122.3 0 0 1 325.2 310.8" opacity="0.21"/><path d="M261 142.7A96.1 96.1 0 0 1 269.6 76.2" opacity="0.26"/><path d="M-85.1 322A146.5 146.5 0 0 1 128.4 339.7" opacity="0.12"/><path d="M312.1 214.8A112.3 112.3 0 0 1 389.9 335.6" opacity="0.25"/><path d="M245.1 397A50.9 50.9 0 0 1 279.8 344.6" opacity="0.20"/><path d="M-73.3 591.7A159.4 159.4 0 0 1 -148.6 406.8" opacity="0.29"/><path d="M428.4 424.4A77.9 77.9 0 0 1 336.4 526.8" opacity="0.12"/><path d="M479.3 567.6A184.9 184.9 0 0 1 282.4 675.7" opacity="0.27"/></g></g>
  <path d="M470 -10C420 300 400 620 430 1010" fill="none" stroke="#f7dcff" stroke-opacity="0.5" stroke-width="1.6" stroke-dasharray="10 9"/>
  <g transform="rotate(-20 400 300)" filter="url(#blurP)">
    <rect x="430" y="150" width="700" height="34" fill="url(#lampP)"/>
    <rect x="430" y="240" width="700" height="16" fill="url(#lampP)" opacity="0.8"/>
    <rect x="430" y="330" width="700" height="26" fill="url(#lampP)" opacity="0.55"/>
  </g>
  <!-- Полировальная машинка -->
  <circle cx="574" cy="724" r="222" fill="#000" opacity="0.6" filter="url(#shadowP)"/>
  <circle cx="560" cy="700" r="218" fill="url(#pad)"/>
  <circle cx="560" cy="700" r="40" fill="none" stroke="#120215" stroke-opacity="0.22" stroke-width="5"/><circle cx="560" cy="700" r="62" fill="none" stroke="#120215" stroke-opacity="0.22" stroke-width="5"/><circle cx="560" cy="700" r="84" fill="none" stroke="#120215" stroke-opacity="0.22" stroke-width="5"/><circle cx="560" cy="700" r="106" fill="none" stroke="#120215" stroke-opacity="0.22" stroke-width="5"/><circle cx="560" cy="700" r="128" fill="none" stroke="#120215" stroke-opacity="0.22" stroke-width="5"/><circle cx="560" cy="700" r="150" fill="none" stroke="#120215" stroke-opacity="0.22" stroke-width="5"/><circle cx="560" cy="700" r="172" fill="none" stroke="#120215" stroke-opacity="0.22" stroke-width="5"/><circle cx="560" cy="700" r="194" fill="none" stroke="#120215" stroke-opacity="0.22" stroke-width="5"/>
  <g fill="#120215" opacity="0.3"><circle cx="601.5" cy="820.7" r="3.7"/><circle cx="663.7" cy="602.4" r="2"/><circle cx="582.8" cy="539.6" r="1.8"/><circle cx="687" cy="653.8" r="2.8"/><circle cx="588.6" cy="604.7" r="2.6"/><circle cx="484.7" cy="694.6" r="3.3"/><circle cx="622.2" cy="756.7" r="4.2"/><circle cx="383.5" cy="683" r="3.9"/><circle cx="624.5" cy="631.9" r="2.3"/><circle cx="766.5" cy="726.8" r="4"/><circle cx="442.3" cy="538" r="1.8"/><circle cx="528.7" cy="860.7" r="2.6"/><circle cx="620.7" cy="603.8" r="3.1"/><circle cx="407.1" cy="590.6" r="4.1"/><circle cx="736.5" cy="700.1" r="2.6"/><circle cx="730.6" cy="588.5" r="3.5"/><circle cx="629.9" cy="874.3" r="3.7"/><circle cx="652.7" cy="886.2" r="2.1"/><circle cx="444.7" cy="625" r="3.8"/><circle cx="721.1" cy="626.8" r="1.8"/><circle cx="485.6" cy="622.7" r="2"/><circle cx="559.9" cy="669.3" r="3.9"/><circle cx="475.4" cy="653.4" r="3.5"/><circle cx="732.5" cy="682.6" r="2.4"/><circle cx="673" cy="570.7" r="3"/><circle cx="732.4" cy="649.1" r="3.2"/><circle cx="690.7" cy="582.7" r="1.5"/><circle cx="470.1" cy="711.8" r="2.2"/><circle cx="475.5" cy="590.3" r="2.1"/><circle cx="446.2" cy="629" r="3.7"/><circle cx="591.5" cy="768.8" r="3.3"/><circle cx="386.3" cy="667.6" r="3.4"/><circle cx="574" cy="817.2" r="2"/><circle cx="514.2" cy="657.5" r="2.1"/><circle cx="591.2" cy="740.6" r="3.1"/><circle cx="643.6" cy="615.4" r="3.1"/><circle cx="488.8" cy="796.7" r="2.7"/><circle cx="609.7" cy="800.9" r="1.8"/><circle cx="588.3" cy="821.5" r="3.9"/><circle cx="565.7" cy="725" r="3.1"/><circle cx="549.6" cy="800.8" r="1.6"/><circle cx="598.6" cy="671.1" r="2.3"/><circle cx="473.5" cy="742.4" r="3.2"/><circle cx="387.6" cy="790.2" r="1.7"/><circle cx="750.7" cy="698.6" r="3.5"/><circle cx="604.4" cy="871.9" r="2.9"/><circle cx="567.9" cy="880.6" r="4.4"/><circle cx="581.4" cy="841.9" r="2"/><circle cx="551.7" cy="539.8" r="2.2"/><circle cx="466.5" cy="700.7" r="2.9"/><circle cx="492.9" cy="734.6" r="2.4"/><circle cx="522.3" cy="590.3" r="1.8"/><circle cx="745.5" cy="633.9" r="3.8"/><circle cx="501.1" cy="777.3" r="3.9"/><circle cx="577.3" cy="524.1" r="2.9"/><circle cx="472.1" cy="651.5" r="4.5"/><circle cx="531.6" cy="787.5" r="2.1"/><circle cx="515.4" cy="804.9" r="2.9"/><circle cx="572.8" cy="656.1" r="3.9"/><circle cx="621.3" cy="864.6" r="1.7"/><circle cx="403" cy="755.8" r="3.7"/><circle cx="516.9" cy="577.2" r="3.6"/><circle cx="436.1" cy="646.6" r="2.2"/><circle cx="360.9" cy="643" r="1.8"/><circle cx="625.3" cy="603" r="3.2"/><circle cx="724" cy="668" r="3.3"/><circle cx="563.5" cy="697.8" r="2.7"/><circle cx="630" cy="865.7" r="3"/><circle cx="486.4" cy="621.2" r="4.1"/><circle cx="468" cy="750.9" r="4.4"/><circle cx="525.1" cy="594" r="3.4"/><circle cx="526.3" cy="872.7" r="3.4"/><circle cx="389.7" cy="820.7" r="2.6"/><circle cx="400.1" cy="618.3" r="2.6"/><circle cx="705.3" cy="751.4" r="2.9"/><circle cx="432.6" cy="652.5" r="2.3"/><circle cx="414.9" cy="670.7" r="3.4"/><circle cx="495.9" cy="873.3" r="2.6"/><circle cx="703.6" cy="566.8" r="2"/><circle cx="488.9" cy="777" r="3.6"/><circle cx="527.3" cy="572.3" r="3.9"/><circle cx="703.1" cy="573.3" r="3.7"/><circle cx="438.5" cy="724.3" r="2.7"/><circle cx="468.6" cy="543.6" r="2.2"/><circle cx="653" cy="667.8" r="3.6"/><circle cx="660" cy="685.9" r="3.9"/><circle cx="421.3" cy="797.4" r="4"/><circle cx="658.9" cy="661.4" r="2.1"/><circle cx="535.7" cy="905.8" r="4"/><circle cx="687.3" cy="777.4" r="3.8"/><circle cx="445.5" cy="645.8" r="4"/><circle cx="422" cy="843.7" r="2.1"/><circle cx="469.4" cy="630.9" r="3.4"/><circle cx="558.5" cy="643" r="4.4"/><circle cx="479" cy="721.3" r="2.7"/><circle cx="480.8" cy="739.4" r="2.9"/><circle cx="588" cy="849.3" r="1.5"/><circle cx="632.3" cy="729.9" r="1.8"/><circle cx="568.9" cy="617.8" r="2.4"/><circle cx="405.5" cy="574.6" r="2.2"/><circle cx="450.1" cy="858.9" r="2.5"/><circle cx="684.2" cy="782.6" r="4.2"/><circle cx="684.6" cy="678.2" r="2.9"/><circle cx="470.8" cy="685.5" r="2.9"/><circle cx="656.1" cy="634.9" r="1.6"/><circle cx="661.1" cy="563.3" r="3.8"/><circle cx="441.6" cy="576.1" r="3.9"/><circle cx="501.9" cy="755.8" r="2.1"/><circle cx="526.2" cy="703.9" r="3.7"/><circle cx="559.7" cy="724.6" r="1.9"/><circle cx="572.2" cy="612" r="4.1"/><circle cx="708.5" cy="615.4" r="3.8"/><circle cx="395.5" cy="682.8" r="3.9"/><circle cx="656" cy="555.6" r="2.4"/><circle cx="644.3" cy="591.2" r="2.5"/><circle cx="448.5" cy="527.3" r="2.8"/><circle cx="752.5" cy="760.5" r="4"/><circle cx="670.2" cy="771.7" r="2.3"/><circle cx="622.8" cy="761.6" r="2.2"/><circle cx="718.9" cy="615.7" r="2.6"/><circle cx="370.3" cy="779.4" r="3.3"/><circle cx="488.4" cy="631.6" r="2.2"/><circle cx="689.7" cy="601.3" r="2.8"/><circle cx="748.9" cy="788.6" r="4.2"/><circle cx="551.2" cy="716.3" r="2.3"/><circle cx="457.9" cy="662.6" r="2.8"/><circle cx="589" cy="799.4" r="3.9"/><circle cx="539.2" cy="908" r="2.7"/><circle cx="612.3" cy="770.6" r="4.2"/><circle cx="740.8" cy="741.2" r="2.5"/><circle cx="463.8" cy="567" r="4.5"/><circle cx="604.5" cy="621.8" r="1.9"/><circle cx="546.9" cy="732" r="1.6"/><circle cx="415.4" cy="573.6" r="2.1"/><circle cx="639.6" cy="518.7" r="4.4"/><circle cx="404.9" cy="691.5" r="2.7"/><circle cx="539.7" cy="574.1" r="2.6"/><circle cx="419.1" cy="765.7" r="4.3"/><circle cx="437" cy="553" r="1.9"/><circle cx="529.1" cy="824.6" r="3.1"/><circle cx="504.5" cy="719" r="2.9"/><circle cx="493.6" cy="689.3" r="1.7"/><circle cx="692.7" cy="635.6" r="4.5"/><circle cx="366.4" cy="657.2" r="2.5"/><circle cx="385.4" cy="693.3" r="4.2"/><circle cx="630" cy="677" r="3.1"/><circle cx="428.1" cy="569.7" r="3.5"/><circle cx="471.4" cy="549.2" r="3.7"/><circle cx="476" cy="602.8" r="4.5"/><circle cx="454.6" cy="855.6" r="3.8"/></g>
  <circle cx="560" cy="700" r="218" fill="none" stroke="#f7dcff" stroke-opacity="0.5" stroke-width="2.5"/>
  <g transform="rotate(-34 560 700)">
    <rect x="498" y="638" width="124" height="124" rx="40" fill="url(#tool)" stroke="#8EA4C6" stroke-opacity="0.5" stroke-width="2"/>
    <rect x="526" y="240" width="68" height="420" rx="30" fill="url(#tool)" stroke="#8EA4C6" stroke-opacity="0.4" stroke-width="2"/>
    <rect x="538" y="260" width="6" height="380" rx="3" fill="#fff" opacity="0.2"/>
  </g>
  <rect width="800" height="1000" fill="url(#dimP)"/>
</svg>
