<svg xmlns="http://www.w3.org/2000/svg" xmlns:xlink="http://www.w3.org/1999/xlink" viewBox="0 0 800 1000" preserveAspectRatio="xMidYMid slice">
  <!-- Временная картинка: мойка под высоким давлением. Замените фотографией работы. -->
  <defs><linearGradient id="panelJ" x1="0" y1="0" x2="1" y2="1"><stop offset="0" stop-color="#0a1530"/><stop offset="0.55" stop-color="#0b235c"/><stop offset="1" stop-color="#03091c"/></linearGradient>
    <linearGradient id="fan" gradientUnits="userSpaceOnUse" x1="232" y1="214" x2="640" y2="820"><stop offset="0" stop-color="#fff" stop-opacity="0.75"/><stop offset="0.6" stop-color="#cfddff" stop-opacity="0.22"/><stop offset="1" stop-color="#cfddff" stop-opacity="0.03"/></linearGradient>
    <linearGradient id="gun" x1="0" y1="0" x2="0" y2="1"><stop offset="0" stop-color="#5B667A"/><stop offset="0.5" stop-color="#1B212B"/><stop offset="1" stop-color="#05070A"/></linearGradient>
    <radialGradient id="dimJ" cx="0.6" cy="0.7" r="0.9"><stop offset="0.5" stop-color="#000" stop-opacity="0"/><stop offset="1" stop-color="#000" stop-opacity="0.72"/></radialGradient>
    <filter id="blurJ"><feGaussianBlur stdDeviation="26"/></filter><filter id="softJ"><feGaussianBlur stdDeviation="4"/></filter></defs>
  <rect width="800" height="1000" fill="url(#panelJ)"/>
  <path d="M-10 560C240 470 520 480 810 620" fill="none" stroke="#000" stroke-opacity="0.6" stroke-width="8"/>
  <path d="M-10 568C240 478 520 488 810 628" fill="none" stroke="#9cb8ff" stroke-opacity="0.4" stroke-width="1.6"/>
  <polygon points="232,214 860,560 480,1040" fill="url(#fan)"/>
  <g stroke="#4681ff" fill="none" stroke-linecap="round" filter="url(#softJ)" opacity="0.7"><path d="M279.4 310.8L599.7 965.8" stroke-width="1.3" opacity="0.51"/><path d="M302.3 254.7L927.3 616.9" stroke-width="1.2" opacity="0.24"/><path d="M283.7 314.6L565.3 861.5" stroke-width="1.9" opacity="0.59"/><path d="M295.8 331.1L545.9 790" stroke-width="1.6" opacity="0.61"/><path d="M292.4 292.7L550.2 628.3" stroke-width="1.2" opacity="0.63"/><path d="M256.4 248.3L724.7 905.7" stroke-width="2.2" opacity="0.87"/><path d="M316.3 297.3L655.1 632.1" stroke-width="2.1" opacity="0.76"/><path d="M248.7 243L616.5 882" stroke-width="1" opacity="0.50"/><path d="M307.2 267.6L693.7 543.5" stroke-width="2.5" opacity="0.59"/><path d="M338.8 294.5L675.8 548.4" stroke-width="2.1" opacity="0.88"/><path d="M254.2 245.5L552.9 669.2" stroke-width="0.9" opacity="0.78"/><path d="M260.2 230.1L760.2 515.6" stroke-width="1" opacity="0.49"/><path d="M328.4 267.6L935.9 605.8" stroke-width="3" opacity="0.71"/><path d="M293.7 267.5L752.2 665.5" stroke-width="2.9" opacity="0.26"/><path d="M289.9 271.1L673.5 649.4" stroke-width="2.3" opacity="0.47"/><path d="M264.8 258.4L689.4 832.9" stroke-width="1.5" opacity="0.61"/><path d="M281.2 299.6L563.5 790.5" stroke-width="1.1" opacity="0.33"/><path d="M310.7 257L730.3 486.6" stroke-width="1.5" opacity="0.79"/><path d="M333.6 291.2L895.4 717.9" stroke-width="1.2" opacity="0.87"/><path d="M265.9 244L744.5 667.5" stroke-width="0.9" opacity="0.31"/><path d="M274.1 250L764.5 668.8" stroke-width="2.2" opacity="0.70"/><path d="M289 329.1L493.9 742.8" stroke-width="1.3" opacity="0.21"/><path d="M277.8 259.7L619.3 600.4" stroke-width="2.6" opacity="0.27"/><path d="M266.5 281.4L516.5 770.1" stroke-width="1.9" opacity="0.51"/><path d="M260.9 243.7L707.9 702.5" stroke-width="1.2" opacity="0.53"/><path d="M295.4 251.6L721.2 503.7" stroke-width="2.5" opacity="0.79"/><path d="M309.8 294.2L741.5 739" stroke-width="1.6" opacity="0.37"/><path d="M310.2 296.2L756.2 765.4" stroke-width="2.1" opacity="0.86"/><path d="M344.8 279L954.8 630.5" stroke-width="1.2" opacity="0.65"/><path d="M278.8 302.7L575.9 866" stroke-width="1.4" opacity="0.87"/><path d="M328.1 297.3L628.3 557.7" stroke-width="1.6" opacity="0.69"/><path d="M261.5 251.6L641.8 735.4" stroke-width="1.4" opacity="0.83"/><path d="M287.9 249.9L682.3 503.1" stroke-width="2.4" opacity="0.31"/><path d="M322.5 294.1L719.9 646" stroke-width="2.8" opacity="0.35"/><path d="M243 233.6L621 904.4" stroke-width="0.9" opacity="0.57"/><path d="M251.7 246.8L510.5 677.8" stroke-width="2.6" opacity="0.37"/><path d="M255.1 257.4L546.5 804" stroke-width="2.6" opacity="0.23"/><path d="M282.7 256.2L724.7 623.8" stroke-width="1.4" opacity="0.77"/><path d="M265.4 244.1L628.3 570.8" stroke-width="1.1" opacity="0.28"/><path d="M253.1 244.9L655.4 834.9" stroke-width="2" opacity="0.37"/><path d="M251.7 253.4L530.7 811.9" stroke-width="2.7" opacity="0.58"/><path d="M331.1 291.4L701.4 580.8" stroke-width="2.7" opacity="0.82"/><path d="M284.4 253.4L800.3 641.6" stroke-width="1.5" opacity="0.34"/><path d="M263.2 277.1L507.8 771.6" stroke-width="2.9" opacity="0.84"/><path d="M283.7 247.1L865.4 619.1" stroke-width="2.1" opacity="0.33"/><path d="M342.1 299.9L844.2 691.7" stroke-width="1" opacity="0.31"/><path d="M298.2 253.9L730.5 514.2" stroke-width="1.9" opacity="0.50"/><path d="M340.8 299.5L750.8 621.6" stroke-width="2.1" opacity="0.78"/><path d="M249.4 248.6L605.7 955.1" stroke-width="2.7" opacity="0.56"/><path d="M312 309L668.2 731.6" stroke-width="1" opacity="0.82"/><path d="M299.5 275.1L652.7 595" stroke-width="1.9" opacity="0.39"/><path d="M270.7 252.7L711 693.5" stroke-width="2.8" opacity="0.68"/><path d="M313.6 259.7L886.8 580.4" stroke-width="1.9" opacity="0.31"/><path d="M322.9 285.1L834 685.2" stroke-width="1.4" opacity="0.84"/><path d="M261.5 267.1L548.6 783.1" stroke-width="2.4" opacity="0.36"/><path d="M277.8 272.5L661 761.4" stroke-width="2.4" opacity="0.41"/><path d="M293.1 311.5L543.3 711.1" stroke-width="1.7" opacity="0.84"/><path d="M300.4 255.8L798.2 559.8" stroke-width="1.8" opacity="0.62"/><path d="M261.8 261.4L570.8 751.7" stroke-width="1.9" opacity="0.38"/><path d="M259.7 247.3L701.2 778.2" stroke-width="1.1" opacity="0.67"/><path d="M290.2 282.1L697.2 758.5" stroke-width="1.6" opacity="0.80"/><path d="M250.9 245.4L586.7 802.8" stroke-width="0.9" opacity="0.71"/><path d="M269 243.1L816.3 673.3" stroke-width="0.9" opacity="0.59"/><path d="M254.6 228.1L683.2 495.8" stroke-width="1.4" opacity="0.58"/><path d="M322.4 277L838.7 636.7" stroke-width="1.6" opacity="0.53"/><path d="M291.6 266L659.1 586.1" stroke-width="1.2" opacity="0.57"/><path d="M255.1 227.6L808 553.9" stroke-width="1.8" opacity="0.85"/><path d="M272.4 250.7L826.9 754.9" stroke-width="2.3" opacity="0.86"/><path d="M314.5 305.9L771.7 815.4" stroke-width="2.8" opacity="0.47"/><path d="M268.3 282.7L615.3 939.7" stroke-width="2.4" opacity="0.48"/></g>
  <g stroke="#f4f7ff" fill="none" stroke-linecap="round"><path d="M279.4 310.8L599.7 965.8" stroke-width="1.3" opacity="0.51"/><path d="M302.3 254.7L927.3 616.9" stroke-width="1.2" opacity="0.24"/><path d="M283.7 314.6L565.3 861.5" stroke-width="1.9" opacity="0.59"/><path d="M295.8 331.1L545.9 790" stroke-width="1.6" opacity="0.61"/><path d="M292.4 292.7L550.2 628.3" stroke-width="1.2" opacity="0.63"/><path d="M256.4 248.3L724.7 905.7" stroke-width="2.2" opacity="0.87"/><path d="M316.3 297.3L655.1 632.1" stroke-width="2.1" opacity="0.76"/><path d="M248.7 243L616.5 882" stroke-width="1" opacity="0.50"/><path d="M307.2 267.6L693.7 543.5" stroke-width="2.5" opacity="0.59"/><path d="M338.8 294.5L675.8 548.4" stroke-width="2.1" opacity="0.88"/><path d="M254.2 245.5L552.9 669.2" stroke-width="0.9" opacity="0.78"/><path d="M260.2 230.1L760.2 515.6" stroke-width="1" opacity="0.49"/><path d="M328.4 267.6L935.9 605.8" stroke-width="3" opacity="0.71"/><path d="M293.7 267.5L752.2 665.5" stroke-width="2.9" opacity="0.26"/><path d="M289.9 271.1L673.5 649.4" stroke-width="2.3" opacity="0.47"/><path d="M264.8 258.4L689.4 832.9" stroke-width="1.5" opacity="0.61"/><path d="M281.2 299.6L563.5 790.5" stroke-width="1.1" opacity="0.33"/><path d="M310.7 257L730.3 486.6" stroke-width="1.5" opacity="0.79"/><path d="M333.6 291.2L895.4 717.9" stroke-width="1.2" opacity="0.87"/><path d="M265.9 244L744.5 667.5" stroke-width="0.9" opacity="0.31"/><path d="M274.1 250L764.5 668.8" stroke-width="2.2" opacity="0.70"/><path d="M289 329.1L493.9 742.8" stroke-width="1.3" opacity="0.21"/><path d="M277.8 259.7L619.3 600.4" stroke-width="2.6" opacity="0.27"/><path d="M266.5 281.4L516.5 770.1" stroke-width="1.9" opacity="0.51"/><path d="M260.9 243.7L707.9 702.5" stroke-width="1.2" opacity="0.53"/><path d="M295.4 251.6L721.2 503.7" stroke-width="2.5" opacity="0.79"/><path d="M309.8 294.2L741.5 739" stroke-width="1.6" opacity="0.37"/><path d="M310.2 296.2L756.2 765.4" stroke-width="2.1" opacity="0.86"/><path d="M344.8 279L954.8 630.5" stroke-width="1.2" opacity="0.65"/><path d="M278.8 302.7L575.9 866" stroke-width="1.4" opacity="0.87"/><path d="M328.1 297.3L628.3 557.7" stroke-width="1.6" opacity="0.69"/><path d="M261.5 251.6L641.8 735.4" stroke-width="1.4" opacity="0.83"/><path d="M287.9 249.9L682.3 503.1" stroke-width="2.4" opacity="0.31"/><path d="M322.5 294.1L719.9 646" stroke-width="2.8" opacity="0.35"/><path d="M243 233.6L621 904.4" stroke-width="0.9" opacity="0.57"/><path d="M251.7 246.8L510.5 677.8" stroke-width="2.6" opacity="0.37"/><path d="M255.1 257.4L546.5 804" stroke-width="2.6" opacity="0.23"/><path d="M282.7 256.2L724.7 623.8" stroke-width="1.4" opacity="0.77"/><path d="M265.4 244.1L628.3 570.8" stroke-width="1.1" opacity="0.28"/><path d="M253.1 244.9L655.4 834.9" stroke-width="2" opacity="0.37"/><path d="M251.7 253.4L530.7 811.9" stroke-width="2.7" opacity="0.58"/><path d="M331.1 291.4L701.4 580.8" stroke-width="2.7" opacity="0.82"/><path d="M284.4 253.4L800.3 641.6" stroke-width="1.5" opacity="0.34"/><path d="M263.2 277.1L507.8 771.6" stroke-width="2.9" opacity="0.84"/><path d="M283.7 247.1L865.4 619.1" stroke-width="2.1" opacity="0.33"/><path d="M342.1 299.9L844.2 691.7" stroke-width="1" opacity="0.31"/><path d="M298.2 253.9L730.5 514.2" stroke-width="1.9" opacity="0.50"/><path d="M340.8 299.5L750.8 621.6" stroke-width="2.1" opacity="0.78"/><path d="M249.4 248.6L605.7 955.1" stroke-width="2.7" opacity="0.56"/><path d="M312 309L668.2 731.6" stroke-width="1" opacity="0.82"/><path d="M299.5 275.1L652.7 595" stroke-width="1.9" opacity="0.39"/><path d="M270.7 252.7L711 693.5" stroke-width="2.8" opacity="0.68"/><path d="M313.6 259.7L886.8 580.4" stroke-width="1.9" opacity="0.31"/><path d="M322.9 285.1L834 685.2" stroke-width="1.4" opacity="0.84"/><path d="M261.5 267.1L548.6 783.1" stroke-width="2.4" opacity="0.36"/><path d="M277.8 272.5L661 761.4" stroke-width="2.4" opacity="0.41"/><path d="M293.1 311.5L543.3 711.1" stroke-width="1.7" opacity="0.84"/><path d="M300.4 255.8L798.2 559.8" stroke-width="1.8" opacity="0.62"/><path d="M261.8 261.4L570.8 751.7" stroke-width="1.9" opacity="0.38"/><path d="M259.7 247.3L701.2 778.2" stroke-width="1.1" opacity="0.67"/><path d="M290.2 282.1L697.2 758.5" stroke-width="1.6" opacity="0.80"/><path d="M250.9 245.4L586.7 802.8" stroke-width="0.9" opacity="0.71"/><path d="M269 243.1L816.3 673.3" stroke-width="0.9" opacity="0.59"/><path d="M254.6 228.1L683.2 495.8" stroke-width="1.4" opacity="0.58"/><path d="M322.4 277L838.7 636.7" stroke-width="1.6" opacity="0.53"/><path d="M291.6 266L659.1 586.1" stroke-width="1.2" opacity="0.57"/><path d="M255.1 227.6L808 553.9" stroke-width="1.8" opacity="0.85"/><path d="M272.4 250.7L826.9 754.9" stroke-width="2.3" opacity="0.86"/><path d="M314.5 305.9L771.7 815.4" stroke-width="2.8" opacity="0.47"/><path d="M268.3 282.7L615.3 939.7" stroke-width="2.4" opacity="0.48"/></g>
  <g fill="#eef4ff" filter="url(#blurJ)"><ellipse cx="587" cy="665.8" rx="103.7" ry="92" opacity="0.16"/><ellipse cx="539.2" cy="908.5" rx="77.2" ry="91.7" opacity="0.30"/><ellipse cx="559.5" cy="702.1" rx="77.2" ry="69.4" opacity="0.31"/><ellipse cx="665.1" cy="788.6" rx="97.4" ry="44.7" opacity="0.14"/><ellipse cx="525.6" cy="671" rx="85.6" ry="41.8" opacity="0.21"/><ellipse cx="541.6" cy="742.7" rx="102.8" ry="81.9" opacity="0.24"/><ellipse cx="729.1" cy="792.3" rx="88.1" ry="82.5" opacity="0.25"/><ellipse cx="581" cy="758.6" rx="118.3" ry="89.9" opacity="0.33"/><ellipse cx="521.7" cy="784.4" rx="147.8" ry="95.6" opacity="0.32"/><ellipse cx="768.3" cy="812.9" rx="66.7" ry="55.6" opacity="0.24"/><ellipse cx="583.6" cy="722.4" rx="63.1" ry="53.3" opacity="0.21"/><ellipse cx="578.2" cy="852.6" rx="137.2" ry="79.7" opacity="0.30"/><ellipse cx="470.4" cy="796.3" rx="104.7" ry="81.8" opacity="0.29"/><ellipse cx="619.2" cy="732.9" rx="81.3" ry="55.1" opacity="0.13"/><ellipse cx="634.6" cy="847.7" rx="131" ry="50.1" opacity="0.29"/><ellipse cx="484.2" cy="900" rx="102.7" ry="90.7" opacity="0.13"/></g>
  <g fill="#f4f7ff"><circle cx="633.6" cy="641.9" r="2.3" opacity="0.37"/><circle cx="572.6" cy="726.7" r="5" opacity="0.93"/><circle cx="396.8" cy="844.9" r="4.9" opacity="0.38"/><circle cx="740" cy="721.3" r="1.3" opacity="0.71"/><circle cx="728.5" cy="1032.8" r="3" opacity="0.53"/><circle cx="474.5" cy="697.6" r="1.9" opacity="0.42"/><circle cx="576.2" cy="719.3" r="3" opacity="0.93"/><circle cx="423.5" cy="830.6" r="5.2" opacity="0.36"/><circle cx="673" cy="761.8" r="1.4" opacity="0.78"/><circle cx="563.7" cy="816.6" r="3.1" opacity="0.35"/><circle cx="467.8" cy="846.5" r="2.9" opacity="0.59"/><circle cx="733.5" cy="1069.7" r="1.6" opacity="0.37"/><circle cx="531.4" cy="791.6" r="1.5" opacity="0.66"/><circle cx="468" cy="652.1" r="2" opacity="0.79"/><circle cx="624.5" cy="871" r="5.8" opacity="0.93"/><circle cx="690" cy="707.9" r="1.4" opacity="0.36"/><circle cx="662.8" cy="836.5" r="4.2" opacity="0.79"/><circle cx="534.6" cy="717.1" r="4.9" opacity="0.58"/><circle cx="497.2" cy="808.4" r="1.4" opacity="0.69"/><circle cx="489.5" cy="884.2" r="2.8" opacity="0.85"/><circle cx="521.7" cy="768.7" r="4.8" opacity="0.66"/><circle cx="621.9" cy="709.7" r="1.7" opacity="0.47"/><circle cx="627.7" cy="708" r="2.9" opacity="0.36"/><circle cx="716.9" cy="900.9" r="1.6" opacity="0.41"/><circle cx="592.6" cy="688.2" r="1.3" opacity="0.37"/><circle cx="588.2" cy="683.5" r="1.3" opacity="0.73"/><circle cx="668" cy="820" r="4.2" opacity="0.43"/><circle cx="516.3" cy="855.1" r="1.8" opacity="0.43"/><circle cx="668.6" cy="810.4" r="2.9" opacity="0.66"/><circle cx="727" cy="630.8" r="1.3" opacity="0.78"/><circle cx="535.8" cy="787.9" r="3.7" opacity="0.88"/><circle cx="568.7" cy="817.9" r="3.7" opacity="0.50"/><circle cx="535.3" cy="777.9" r="1.9" opacity="0.53"/><circle cx="472.4" cy="768.2" r="3.8" opacity="0.76"/><circle cx="390.8" cy="832.9" r="2.2" opacity="0.50"/><circle cx="659.9" cy="822.1" r="6" opacity="0.42"/><circle cx="532.9" cy="705.6" r="1.2" opacity="0.68"/><circle cx="530.8" cy="585.3" r="5.6" opacity="0.74"/><circle cx="566.1" cy="724.6" r="5.7" opacity="0.84"/><circle cx="667.6" cy="945.5" r="1.6" opacity="0.82"/><circle cx="542.1" cy="811.2" r="2.2" opacity="0.36"/><circle cx="706.2" cy="706.7" r="1.2" opacity="0.62"/><circle cx="440.4" cy="786.3" r="2" opacity="0.55"/><circle cx="445.9" cy="578.5" r="2.1" opacity="0.50"/><circle cx="307.2" cy="792.4" r="1.6" opacity="0.76"/><circle cx="654.5" cy="687.5" r="1.7" opacity="0.91"/><circle cx="627.6" cy="696.8" r="4.7" opacity="0.88"/><circle cx="582.8" cy="819.6" r="1.8" opacity="0.75"/><circle cx="722.2" cy="727.7" r="3.1" opacity="0.79"/><circle cx="789" cy="857.6" r="6.3" opacity="0.37"/><circle cx="684.3" cy="757.1" r="1.6" opacity="0.80"/><circle cx="387.7" cy="683.1" r="2.7" opacity="0.51"/><circle cx="544.2" cy="815.4" r="3" opacity="0.51"/><circle cx="504" cy="825.6" r="2.7" opacity="0.43"/><circle cx="525" cy="692.9" r="2.6" opacity="0.74"/><circle cx="675" cy="769" r="2.8" opacity="0.86"/><circle cx="668.6" cy="599.4" r="2.8" opacity="0.68"/><circle cx="809.7" cy="623.3" r="5.5" opacity="0.52"/><circle cx="636.1" cy="707.4" r="1.2" opacity="0.36"/><circle cx="807.3" cy="705.5" r="3.9" opacity="0.74"/><circle cx="520.8" cy="786.6" r="2.5" opacity="0.52"/><circle cx="453.5" cy="804.1" r="1.3" opacity="0.56"/><circle cx="683.9" cy="690.3" r="2.7" opacity="0.39"/><circle cx="525.7" cy="740.8" r="6.2" opacity="0.49"/><circle cx="547.6" cy="1071.4" r="3.3" opacity="0.92"/><circle cx="597.3" cy="697.6" r="3.5" opacity="0.68"/><circle cx="424.3" cy="678.4" r="1.6" opacity="0.67"/><circle cx="656.6" cy="726.2" r="1.5" opacity="0.47"/><circle cx="626.1" cy="673.2" r="1.8" opacity="0.94"/><circle cx="543.2" cy="707.6" r="1.9" opacity="0.72"/><circle cx="646.2" cy="692.8" r="6.6" opacity="0.47"/><circle cx="637.7" cy="675.9" r="2" opacity="0.48"/><circle cx="671.4" cy="778.2" r="1.9" opacity="0.94"/><circle cx="681.6" cy="713.4" r="2.7" opacity="0.57"/><circle cx="800.5" cy="623.2" r="1.5" opacity="0.78"/><circle cx="542.6" cy="818.2" r="1.5" opacity="0.59"/><circle cx="533.2" cy="698.1" r="1.6" opacity="0.44"/><circle cx="803.4" cy="637.7" r="6.2" opacity="0.46"/><circle cx="438" cy="594.7" r="3.8" opacity="0.37"/><circle cx="711.4" cy="1031.5" r="2.4" opacity="0.77"/><circle cx="695.3" cy="828.9" r="2.5" opacity="0.84"/><circle cx="577.5" cy="819.1" r="2.2" opacity="0.54"/><circle cx="648.8" cy="862.1" r="1.3" opacity="0.46"/><circle cx="693.3" cy="696.2" r="3.5" opacity="0.54"/><circle cx="782.6" cy="551.8" r="4.2" opacity="0.54"/><circle cx="599.4" cy="824" r="1.2" opacity="0.61"/><circle cx="583.5" cy="712.5" r="5.3" opacity="0.84"/><circle cx="531.8" cy="756.2" r="3.6" opacity="0.77"/><circle cx="587.8" cy="890.6" r="3.1" opacity="0.62"/><circle cx="583.6" cy="636.9" r="2.1" opacity="0.79"/><circle cx="583.3" cy="840.3" r="2.4" opacity="0.71"/><circle cx="854.8" cy="769.5" r="3.8" opacity="0.82"/><circle cx="601.1" cy="904.6" r="2.5" opacity="0.87"/><circle cx="377.9" cy="855.9" r="3.9" opacity="0.54"/><circle cx="560.5" cy="710" r="1.6" opacity="0.84"/><circle cx="435.3" cy="588" r="1.6" opacity="0.55"/><circle cx="435.7" cy="861.2" r="2.8" opacity="0.66"/><circle cx="585.1" cy="722.1" r="3.4" opacity="0.91"/><circle cx="660" cy="789" r="2.5" opacity="0.81"/><circle cx="487.9" cy="803.2" r="1.5" opacity="0.93"/><circle cx="549.2" cy="681.9" r="1.6" opacity="0.78"/><circle cx="689.1" cy="765" r="3.3" opacity="0.62"/><circle cx="728.8" cy="891.2" r="3.4" opacity="0.69"/><circle cx="478.8" cy="936.2" r="1.3" opacity="0.79"/><circle cx="497.1" cy="757.4" r="6.5" opacity="0.42"/><circle cx="613" cy="828.6" r="1.3" opacity="0.57"/><circle cx="208" cy="973.1" r="1.4" opacity="0.54"/><circle cx="563.1" cy="657.4" r="1.5" opacity="0.53"/><circle cx="676.1" cy="624.8" r="1.8" opacity="0.37"/><circle cx="372.2" cy="621.6" r="2.8" opacity="0.62"/><circle cx="483.5" cy="732.4" r="1.5" opacity="0.44"/><circle cx="522.6" cy="702.3" r="3.7" opacity="0.85"/><circle cx="758.8" cy="748.7" r="1.6" opacity="0.43"/><circle cx="425" cy="587.4" r="2.2" opacity="0.90"/><circle cx="715.8" cy="619.7" r="3.8" opacity="0.58"/><circle cx="542.4" cy="752.9" r="2.1" opacity="0.63"/><circle cx="559.4" cy="729.5" r="3.7" opacity="0.94"/><circle cx="486" cy="763" r="1.3" opacity="0.36"/><circle cx="513.3" cy="732.8" r="5" opacity="0.51"/><circle cx="627.1" cy="712.6" r="1.9" opacity="0.55"/><circle cx="491.2" cy="735.2" r="1.9" opacity="0.83"/><circle cx="950.6" cy="653.6" r="1.6" opacity="0.84"/><circle cx="424.7" cy="1014.1" r="1.2" opacity="0.73"/><circle cx="805.4" cy="787.7" r="1.9" opacity="0.44"/><circle cx="530" cy="764.7" r="3" opacity="0.47"/><circle cx="689.5" cy="717.7" r="1.6" opacity="0.36"/><circle cx="453" cy="783.5" r="2.9" opacity="0.42"/><circle cx="766.4" cy="656.8" r="1.9" opacity="0.94"/><circle cx="472.6" cy="685.6" r="1.8" opacity="0.61"/><circle cx="414.2" cy="715.6" r="3.4" opacity="0.57"/><circle cx="705.2" cy="875.2" r="1.6" opacity="0.75"/><circle cx="499.3" cy="559.9" r="4.5" opacity="0.84"/><circle cx="986.5" cy="950.8" r="4.8" opacity="0.74"/><circle cx="527.5" cy="864.7" r="4.4" opacity="0.55"/><circle cx="737.3" cy="826.5" r="7.7" opacity="0.56"/><circle cx="302.3" cy="897.4" r="1.2" opacity="0.43"/><circle cx="598.5" cy="820.6" r="4.1" opacity="0.61"/><circle cx="939.1" cy="694.1" r="1.2" opacity="0.37"/><circle cx="649.2" cy="734.5" r="3.9" opacity="0.71"/><circle cx="392.5" cy="891.4" r="1.9" opacity="0.62"/><circle cx="522.9" cy="691" r="5.7" opacity="0.75"/><circle cx="519.2" cy="793.4" r="1.3" opacity="0.77"/><circle cx="551.5" cy="716.9" r="3" opacity="0.40"/><circle cx="538.7" cy="744.6" r="3.8" opacity="0.86"/><circle cx="882.7" cy="755.6" r="3.7" opacity="0.68"/><circle cx="391.2" cy="694.4" r="1.8" opacity="0.56"/><circle cx="706.4" cy="751.9" r="1.3" opacity="0.57"/><circle cx="510.9" cy="784.9" r="2.2" opacity="0.90"/><circle cx="774.9" cy="1085.9" r="6.1" opacity="0.66"/><circle cx="466.2" cy="786.6" r="4.9" opacity="0.59"/><circle cx="556.4" cy="946.4" r="5.1" opacity="0.76"/><circle cx="541" cy="812.6" r="5.3" opacity="0.39"/><circle cx="580.5" cy="723.3" r="2.1" opacity="0.42"/><circle cx="423.9" cy="628.1" r="2.2" opacity="0.45"/><circle cx="575.2" cy="824.9" r="2.5" opacity="0.47"/><circle cx="695.7" cy="740.1" r="4" opacity="0.83"/><circle cx="720.5" cy="828.7" r="5.3" opacity="0.44"/><circle cx="635.8" cy="567.3" r="1.5" opacity="0.52"/><circle cx="658.8" cy="740.1" r="1.3" opacity="0.67"/><circle cx="462.2" cy="840.8" r="3.8" opacity="0.75"/><circle cx="676.4" cy="829.6" r="3.8" opacity="0.38"/><circle cx="546" cy="741.3" r="5.1" opacity="0.61"/><circle cx="808.2" cy="663.2" r="1.3" opacity="0.35"/><circle cx="435.5" cy="468.1" r="2.2" opacity="0.76"/><circle cx="687.2" cy="725.2" r="2.1" opacity="0.93"/><circle cx="519.8" cy="775.1" r="2" opacity="0.83"/><circle cx="667" cy="758.6" r="5.2" opacity="0.40"/><circle cx="653.9" cy="733.6" r="1.6" opacity="0.71"/><circle cx="743.4" cy="880.8" r="1.3" opacity="0.50"/><circle cx="705.8" cy="704" r="1.4" opacity="0.71"/></g>
  <!-- Пистолет -->
  <g transform="rotate(42 232 214)">
    <rect x="-188" y="199" width="400" height="30" rx="8" fill="url(#gun)"/>
    <rect x="-188" y="201" width="400" height="3" fill="#fff" opacity="0.28"/>
    <rect x="188" y="193" width="34" height="42" rx="6" fill="#4681ff"/>
    <rect x="220" y="205" width="16" height="18" rx="3" fill="#C3CDDD"/>
  </g>
  <rect width="800" height="1000" fill="url(#dimJ)"/>
</svg>
