<svg xmlns="http://www.w3.org/2000/svg" xmlns:xlink="http://www.w3.org/1999/xlink" viewBox="0 0 800 1000" preserveAspectRatio="xMidYMid slice">
  <!-- Временная картинка: мойка под высоким давлением. Замените фотографией работы. -->
  <defs><linearGradient id="panelJ" x1="0" y1="0" x2="1" y2="1"><stop offset="0" stop-color="#300b0a"/><stop offset="0.55" stop-color="#5c0c0b"/><stop offset="1" stop-color="#1c0503"/></linearGradient>
    <linearGradient id="fan" gradientUnits="userSpaceOnUse" x1="232" y1="214" x2="640" y2="820"><stop offset="0" stop-color="#fff" stop-opacity="0.75"/><stop offset="0.6" stop-color="#ffd0cf" stop-opacity="0.22"/><stop offset="1" stop-color="#ffd0cf" stop-opacity="0.03"/></linearGradient>
    <linearGradient id="gun" x1="0" y1="0" x2="0" y2="1"><stop offset="0" stop-color="#5B667A"/><stop offset="0.5" stop-color="#1B212B"/><stop offset="1" stop-color="#05070A"/></linearGradient>
    <radialGradient id="dimJ" cx="0.6" cy="0.7" r="0.9"><stop offset="0.5" stop-color="#000" stop-opacity="0"/><stop offset="1" stop-color="#000" stop-opacity="0.72"/></radialGradient>
    <filter id="blurJ"><feGaussianBlur stdDeviation="26"/></filter><filter id="softJ"><feGaussianBlur stdDeviation="4"/></filter></defs>
  <rect width="800" height="1000" fill="url(#panelJ)"/>
  <path d="M-10 560C240 470 520 480 810 620" fill="none" stroke="#000" stroke-opacity="0.6" stroke-width="8"/>
  <path d="M-10 568C240 478 520 488 810 628" fill="none" stroke="#ffa09c" stroke-opacity="0.4" stroke-width="1.6"/>
  <polygon points="232,214 860,560 480,1040" fill="url(#fan)"/>
  <g stroke="#ff4646" fill="none" stroke-linecap="round" filter="url(#softJ)" opacity="0.7"><path d="M282.4 275.4L740.2 832.9" stroke-width="2.8" opacity="0.38"/><path d="M292.6 276L767.6 762.1" stroke-width="1.3" opacity="0.62"/><path d="M274.5 301L590.6 948.4" stroke-width="2.9" opacity="0.30"/><path d="M248.9 228L765.1 656.7" stroke-width="2.2" opacity="0.78"/><path d="M272.1 269.2L623.2 752.4" stroke-width="2.9" opacity="0.87"/><path d="M265 279.5L496.1 738" stroke-width="1.4" opacity="0.41"/><path d="M316.6 311.5L668.8 717.4" stroke-width="2.3" opacity="0.41"/><path d="M285.8 280.8L589.1 657.4" stroke-width="2.7" opacity="0.21"/><path d="M280.2 259.6L837 786.2" stroke-width="1.4" opacity="0.79"/><path d="M256.7 238.4L613.1 590.6" stroke-width="1.9" opacity="0.87"/><path d="M266.4 255L689 757.8" stroke-width="2.2" opacity="0.62"/><path d="M267.9 263.5L665.9 812.2" stroke-width="1" opacity="0.32"/><path d="M252.8 252.1L616.7 918.1" stroke-width="2.6" opacity="0.62"/><path d="M264 273.9L590.3 884.3" stroke-width="1.6" opacity="0.48"/><path d="M255.6 247.1L539.9 645.9" stroke-width="1.2" opacity="0.89"/><path d="M295.7 319.8L661.8 927.8" stroke-width="2" opacity="0.86"/><path d="M275.1 254.9L733.9 689.5" stroke-width="1.3" opacity="0.32"/><path d="M247.9 243.2L516.9 737.9" stroke-width="2.5" opacity="0.22"/><path d="M293.3 301.6L586.9 721.2" stroke-width="1" opacity="0.39"/><path d="M305.1 290.5L704.8 708.6" stroke-width="2.7" opacity="0.49"/><path d="M308.1 325.9L633 803.5" stroke-width="1.7" opacity="0.63"/><path d="M300.9 332.7L649 932.7" stroke-width="2.6" opacity="0.41"/><path d="M281.4 313.1L478.2 708.1" stroke-width="0.9" opacity="0.44"/><path d="M248 237L563.9 689.9" stroke-width="2.4" opacity="0.79"/><path d="M248.6 234L594.3 650.4" stroke-width="1.8" opacity="0.83"/><path d="M324.6 271L884.9 615.8" stroke-width="1.5" opacity="0.84"/><path d="M291.8 259.4L862.3 692.5" stroke-width="2.5" opacity="0.21"/><path d="M320.2 276L783.7 602.1" stroke-width="1" opacity="0.55"/><path d="M312.2 298.4L625.7 628.5" stroke-width="2.5" opacity="0.84"/><path d="M254.6 255.5L510.3 725" stroke-width="1.6" opacity="0.84"/><path d="M273.8 282.5L583.2 789.6" stroke-width="2.1" opacity="0.63"/><path d="M277.1 302.9L509.4 760.7" stroke-width="1.5" opacity="0.30"/><path d="M289 284.6L613.6 686.3" stroke-width="2.9" opacity="0.54"/><path d="M295 333.3L517.1 754.1" stroke-width="2.7" opacity="0.38"/><path d="M290.6 313.7L522.6 708.1" stroke-width="0.9" opacity="0.34"/><path d="M258.8 233.4L692.6 548" stroke-width="2.4" opacity="0.83"/><path d="M267 261L634.4 753.8" stroke-width="2.7" opacity="0.22"/><path d="M274.8 294.6L532.1 779.6" stroke-width="1.7" opacity="0.79"/><path d="M248.8 240.4L519 664.5" stroke-width="3" opacity="0.20"/><path d="M290.6 255.3L669.6 522.2" stroke-width="0.9" opacity="0.77"/><path d="M248.7 246.7L608 951.2" stroke-width="2.8" opacity="0.63"/><path d="M296.1 281.7L696 704.7" stroke-width="2.2" opacity="0.47"/><path d="M246.6 239.4L577.9 817.7" stroke-width="1.8" opacity="0.63"/><path d="M258 245L732.9 812.3" stroke-width="2.4" opacity="0.56"/><path d="M279.4 251.2L752.8 623.5" stroke-width="2.4" opacity="0.44"/><path d="M263.6 232.4L876.8 590.5" stroke-width="2.5" opacity="0.42"/><path d="M289.4 255L683.1 535.9" stroke-width="2.8" opacity="0.32"/><path d="M314.2 322.8L612.5 717.7" stroke-width="0.9" opacity="0.49"/><path d="M339.1 287.4L920.6 685.8" stroke-width="0.9" opacity="0.41"/><path d="M254.5 231.7L700 583.1" stroke-width="2.9" opacity="0.74"/><path d="M298.5 293.8L584 636.3" stroke-width="1" opacity="0.34"/><path d="M327.7 276.8L769.8 566.8" stroke-width="1.3" opacity="0.26"/><path d="M261.2 240.5L632.3 578.2" stroke-width="1.5" opacity="0.46"/><path d="M289.7 271.7L658.1 639.5" stroke-width="1.4" opacity="0.84"/><path d="M249.5 241.1L599.9 785.6" stroke-width="1.2" opacity="0.79"/><path d="M267.6 237.4L875.4 636.8" stroke-width="2.1" opacity="0.59"/><path d="M301.4 292.6L643 679.3" stroke-width="2.9" opacity="0.84"/><path d="M261.8 249.7L732.8 814.6" stroke-width="2.5" opacity="0.49"/><path d="M246.7 235.5L639.4 811.4" stroke-width="2.6" opacity="0.84"/><path d="M270.2 255.3L620.1 633.3" stroke-width="0.9" opacity="0.84"/><path d="M304.2 273.7L820.9 701.4" stroke-width="3" opacity="0.29"/><path d="M304.9 301.8L729 812.4" stroke-width="1.3" opacity="0.61"/><path d="M247 243.9L482.8 713.6" stroke-width="1.8" opacity="0.53"/><path d="M280.9 292L654.6 888.3" stroke-width="1.2" opacity="0.52"/><path d="M244.2 233.3L565.7 742" stroke-width="2.3" opacity="0.41"/><path d="M313.6 318.4L741.4 865.9" stroke-width="1.1" opacity="0.75"/><path d="M338 274.2L834.7 556" stroke-width="2.4" opacity="0.44"/><path d="M323.1 308.1L603.7 598.2" stroke-width="2.8" opacity="0.40"/><path d="M287.1 289.5L652.3 789.8" stroke-width="2.2" opacity="0.84"/><path d="M265.3 265.4L622.6 815.9" stroke-width="2.6" opacity="0.31"/></g>
  <g stroke="#fff4f4" fill="none" stroke-linecap="round"><path d="M282.4 275.4L740.2 832.9" stroke-width="2.8" opacity="0.38"/><path d="M292.6 276L767.6 762.1" stroke-width="1.3" opacity="0.62"/><path d="M274.5 301L590.6 948.4" stroke-width="2.9" opacity="0.30"/><path d="M248.9 228L765.1 656.7" stroke-width="2.2" opacity="0.78"/><path d="M272.1 269.2L623.2 752.4" stroke-width="2.9" opacity="0.87"/><path d="M265 279.5L496.1 738" stroke-width="1.4" opacity="0.41"/><path d="M316.6 311.5L668.8 717.4" stroke-width="2.3" opacity="0.41"/><path d="M285.8 280.8L589.1 657.4" stroke-width="2.7" opacity="0.21"/><path d="M280.2 259.6L837 786.2" stroke-width="1.4" opacity="0.79"/><path d="M256.7 238.4L613.1 590.6" stroke-width="1.9" opacity="0.87"/><path d="M266.4 255L689 757.8" stroke-width="2.2" opacity="0.62"/><path d="M267.9 263.5L665.9 812.2" stroke-width="1" opacity="0.32"/><path d="M252.8 252.1L616.7 918.1" stroke-width="2.6" opacity="0.62"/><path d="M264 273.9L590.3 884.3" stroke-width="1.6" opacity="0.48"/><path d="M255.6 247.1L539.9 645.9" stroke-width="1.2" opacity="0.89"/><path d="M295.7 319.8L661.8 927.8" stroke-width="2" opacity="0.86"/><path d="M275.1 254.9L733.9 689.5" stroke-width="1.3" opacity="0.32"/><path d="M247.9 243.2L516.9 737.9" stroke-width="2.5" opacity="0.22"/><path d="M293.3 301.6L586.9 721.2" stroke-width="1" opacity="0.39"/><path d="M305.1 290.5L704.8 708.6" stroke-width="2.7" opacity="0.49"/><path d="M308.1 325.9L633 803.5" stroke-width="1.7" opacity="0.63"/><path d="M300.9 332.7L649 932.7" stroke-width="2.6" opacity="0.41"/><path d="M281.4 313.1L478.2 708.1" stroke-width="0.9" opacity="0.44"/><path d="M248 237L563.9 689.9" stroke-width="2.4" opacity="0.79"/><path d="M248.6 234L594.3 650.4" stroke-width="1.8" opacity="0.83"/><path d="M324.6 271L884.9 615.8" stroke-width="1.5" opacity="0.84"/><path d="M291.8 259.4L862.3 692.5" stroke-width="2.5" opacity="0.21"/><path d="M320.2 276L783.7 602.1" stroke-width="1" opacity="0.55"/><path d="M312.2 298.4L625.7 628.5" stroke-width="2.5" opacity="0.84"/><path d="M254.6 255.5L510.3 725" stroke-width="1.6" opacity="0.84"/><path d="M273.8 282.5L583.2 789.6" stroke-width="2.1" opacity="0.63"/><path d="M277.1 302.9L509.4 760.7" stroke-width="1.5" opacity="0.30"/><path d="M289 284.6L613.6 686.3" stroke-width="2.9" opacity="0.54"/><path d="M295 333.3L517.1 754.1" stroke-width="2.7" opacity="0.38"/><path d="M290.6 313.7L522.6 708.1" stroke-width="0.9" opacity="0.34"/><path d="M258.8 233.4L692.6 548" stroke-width="2.4" opacity="0.83"/><path d="M267 261L634.4 753.8" stroke-width="2.7" opacity="0.22"/><path d="M274.8 294.6L532.1 779.6" stroke-width="1.7" opacity="0.79"/><path d="M248.8 240.4L519 664.5" stroke-width="3" opacity="0.20"/><path d="M290.6 255.3L669.6 522.2" stroke-width="0.9" opacity="0.77"/><path d="M248.7 246.7L608 951.2" stroke-width="2.8" opacity="0.63"/><path d="M296.1 281.7L696 704.7" stroke-width="2.2" opacity="0.47"/><path d="M246.6 239.4L577.9 817.7" stroke-width="1.8" opacity="0.63"/><path d="M258 245L732.9 812.3" stroke-width="2.4" opacity="0.56"/><path d="M279.4 251.2L752.8 623.5" stroke-width="2.4" opacity="0.44"/><path d="M263.6 232.4L876.8 590.5" stroke-width="2.5" opacity="0.42"/><path d="M289.4 255L683.1 535.9" stroke-width="2.8" opacity="0.32"/><path d="M314.2 322.8L612.5 717.7" stroke-width="0.9" opacity="0.49"/><path d="M339.1 287.4L920.6 685.8" stroke-width="0.9" opacity="0.41"/><path d="M254.5 231.7L700 583.1" stroke-width="2.9" opacity="0.74"/><path d="M298.5 293.8L584 636.3" stroke-width="1" opacity="0.34"/><path d="M327.7 276.8L769.8 566.8" stroke-width="1.3" opacity="0.26"/><path d="M261.2 240.5L632.3 578.2" stroke-width="1.5" opacity="0.46"/><path d="M289.7 271.7L658.1 639.5" stroke-width="1.4" opacity="0.84"/><path d="M249.5 241.1L599.9 785.6" stroke-width="1.2" opacity="0.79"/><path d="M267.6 237.4L875.4 636.8" stroke-width="2.1" opacity="0.59"/><path d="M301.4 292.6L643 679.3" stroke-width="2.9" opacity="0.84"/><path d="M261.8 249.7L732.8 814.6" stroke-width="2.5" opacity="0.49"/><path d="M246.7 235.5L639.4 811.4" stroke-width="2.6" opacity="0.84"/><path d="M270.2 255.3L620.1 633.3" stroke-width="0.9" opacity="0.84"/><path d="M304.2 273.7L820.9 701.4" stroke-width="3" opacity="0.29"/><path d="M304.9 301.8L729 812.4" stroke-width="1.3" opacity="0.61"/><path d="M247 243.9L482.8 713.6" stroke-width="1.8" opacity="0.53"/><path d="M280.9 292L654.6 888.3" stroke-width="1.2" opacity="0.52"/><path d="M244.2 233.3L565.7 742" stroke-width="2.3" opacity="0.41"/><path d="M313.6 318.4L741.4 865.9" stroke-width="1.1" opacity="0.75"/><path d="M338 274.2L834.7 556" stroke-width="2.4" opacity="0.44"/><path d="M323.1 308.1L603.7 598.2" stroke-width="2.8" opacity="0.40"/><path d="M287.1 289.5L652.3 789.8" stroke-width="2.2" opacity="0.84"/><path d="M265.3 265.4L622.6 815.9" stroke-width="2.6" opacity="0.31"/></g>
  <g fill="#ffeeee" filter="url(#blurJ)"><ellipse cx="484.3" cy="730.7" rx="108.1" ry="77.3" opacity="0.14"/><ellipse cx="522.3" cy="660.6" rx="140.5" ry="40.3" opacity="0.19"/><ellipse cx="537.9" cy="718" rx="98.6" ry="59.7" opacity="0.17"/><ellipse cx="701" cy="891.2" rx="85.9" ry="87.7" opacity="0.27"/><ellipse cx="703.2" cy="806.1" rx="146.9" ry="99.1" opacity="0.31"/><ellipse cx="616.9" cy="650" rx="90.1" ry="44.9" opacity="0.18"/><ellipse cx="703.1" cy="751.5" rx="79.4" ry="80.6" opacity="0.15"/><ellipse cx="491.9" cy="716.3" rx="106.9" ry="61.8" opacity="0.18"/><ellipse cx="563.1" cy="759.7" rx="148.5" ry="43.7" opacity="0.18"/><ellipse cx="631.2" cy="765.1" rx="91.8" ry="63.2" opacity="0.19"/><ellipse cx="564.8" cy="724.4" rx="121.3" ry="46.1" opacity="0.28"/><ellipse cx="536.8" cy="902.1" rx="109.2" ry="58.8" opacity="0.31"/><ellipse cx="739.2" cy="712.3" rx="112.7" ry="72.2" opacity="0.15"/><ellipse cx="713.1" cy="898.6" rx="91.8" ry="84.7" opacity="0.27"/><ellipse cx="668.8" cy="904.1" rx="78.2" ry="51.6" opacity="0.30"/><ellipse cx="513.5" cy="740.7" rx="146.9" ry="77.6" opacity="0.23"/></g>
  <g fill="#fff4f4"><circle cx="775.4" cy="838" r="1.4" opacity="0.80"/><circle cx="651" cy="816.2" r="2" opacity="0.67"/><circle cx="631.5" cy="813.4" r="2.3" opacity="0.87"/><circle cx="505.5" cy="757.1" r="5.1" opacity="0.81"/><circle cx="744" cy="609.4" r="5.1" opacity="0.84"/><circle cx="542.4" cy="742.9" r="1.2" opacity="0.83"/><circle cx="583.7" cy="534.1" r="2.6" opacity="0.47"/><circle cx="523.9" cy="808.6" r="3.9" opacity="0.51"/><circle cx="493.5" cy="932.8" r="3.2" opacity="0.58"/><circle cx="592.8" cy="585" r="2" opacity="0.56"/><circle cx="537.8" cy="708.2" r="1.6" opacity="0.85"/><circle cx="597.2" cy="575.5" r="1.7" opacity="0.45"/><circle cx="453.1" cy="949" r="1.8" opacity="0.73"/><circle cx="628.8" cy="716.1" r="1.2" opacity="0.37"/><circle cx="563.1" cy="811.5" r="4" opacity="0.42"/><circle cx="610.6" cy="883.8" r="1.5" opacity="0.65"/><circle cx="639" cy="914.7" r="2.2" opacity="0.60"/><circle cx="455.7" cy="780.1" r="2.3" opacity="0.93"/><circle cx="653.9" cy="600.3" r="6.5" opacity="0.71"/><circle cx="654.3" cy="803.9" r="3.3" opacity="0.38"/><circle cx="661.3" cy="795.1" r="1.7" opacity="0.39"/><circle cx="556.3" cy="727.1" r="3.9" opacity="0.56"/><circle cx="410.7" cy="584.4" r="3.4" opacity="0.38"/><circle cx="684" cy="836.4" r="1.5" opacity="0.91"/><circle cx="340.1" cy="529.4" r="2" opacity="0.76"/><circle cx="740.2" cy="877.9" r="1.4" opacity="0.44"/><circle cx="681" cy="778.5" r="1.4" opacity="0.94"/><circle cx="524.8" cy="776" r="1.7" opacity="0.45"/><circle cx="629" cy="712.2" r="3.1" opacity="0.72"/><circle cx="678.9" cy="437.2" r="3.2" opacity="0.40"/><circle cx="727.9" cy="899.8" r="2" opacity="0.88"/><circle cx="678.2" cy="700.2" r="1.4" opacity="0.65"/><circle cx="677.5" cy="717.7" r="2.8" opacity="0.90"/><circle cx="527.3" cy="790.7" r="1.5" opacity="0.43"/><circle cx="540.6" cy="735.3" r="1.7" opacity="0.37"/><circle cx="299" cy="659.6" r="4.6" opacity="0.61"/><circle cx="454.6" cy="696.4" r="2.1" opacity="0.64"/><circle cx="550.5" cy="820.6" r="1.6" opacity="0.45"/><circle cx="680.1" cy="920.8" r="1.3" opacity="0.94"/><circle cx="199.2" cy="647.1" r="4.2" opacity="0.61"/><circle cx="611.5" cy="720.4" r="2.7" opacity="0.92"/><circle cx="603.5" cy="681.8" r="3.9" opacity="0.51"/><circle cx="720" cy="812.4" r="3.8" opacity="0.62"/><circle cx="505.7" cy="797.4" r="3.4" opacity="0.75"/><circle cx="658.6" cy="747.2" r="6.3" opacity="0.91"/><circle cx="670.7" cy="900.8" r="1.5" opacity="0.52"/><circle cx="815.4" cy="531.5" r="1.3" opacity="0.74"/><circle cx="626.7" cy="719.6" r="3" opacity="0.66"/><circle cx="945.4" cy="767.4" r="2.6" opacity="0.92"/><circle cx="584.5" cy="831.9" r="2.5" opacity="0.48"/><circle cx="700.5" cy="845" r="6.7" opacity="0.36"/><circle cx="811.2" cy="780.5" r="3.2" opacity="0.92"/><circle cx="337.1" cy="826.9" r="1.5" opacity="0.75"/><circle cx="621" cy="839.9" r="1.9" opacity="0.44"/><circle cx="646.4" cy="813.8" r="1.6" opacity="0.35"/><circle cx="608.4" cy="831.8" r="2.4" opacity="0.39"/><circle cx="636.6" cy="717.4" r="1.8" opacity="0.44"/><circle cx="459.4" cy="816" r="1.5" opacity="0.56"/><circle cx="455.5" cy="873" r="1.4" opacity="0.84"/><circle cx="603.3" cy="617.3" r="3.4" opacity="0.90"/><circle cx="629.4" cy="611.5" r="2.6" opacity="0.80"/><circle cx="593.4" cy="929.7" r="1.9" opacity="0.49"/><circle cx="487.6" cy="695.7" r="2.2" opacity="0.72"/><circle cx="495.9" cy="755.5" r="4.4" opacity="0.84"/><circle cx="778.2" cy="827.6" r="2" opacity="0.92"/><circle cx="675.3" cy="763.3" r="1.5" opacity="0.45"/><circle cx="490.9" cy="599.3" r="4.7" opacity="0.95"/><circle cx="366.6" cy="522.5" r="2.3" opacity="0.73"/><circle cx="494.4" cy="710.6" r="1.6" opacity="0.72"/><circle cx="356.8" cy="821.9" r="1.8" opacity="0.70"/><circle cx="857.8" cy="723.1" r="1.4" opacity="0.55"/><circle cx="602.7" cy="690.1" r="4.5" opacity="0.93"/><circle cx="696.4" cy="718.9" r="5.1" opacity="0.45"/><circle cx="587.2" cy="868.2" r="1.3" opacity="0.65"/><circle cx="552.1" cy="1081" r="4.5" opacity="0.43"/><circle cx="346.5" cy="792.5" r="1.5" opacity="0.69"/><circle cx="580.2" cy="632.1" r="3.8" opacity="0.82"/><circle cx="683.7" cy="760.6" r="6.1" opacity="0.72"/><circle cx="646.9" cy="595.1" r="1.7" opacity="0.73"/><circle cx="614.7" cy="833.8" r="1.6" opacity="0.74"/><circle cx="495.3" cy="550.4" r="1.3" opacity="0.35"/><circle cx="865.7" cy="652.1" r="4.4" opacity="0.72"/><circle cx="494.5" cy="710.6" r="3" opacity="0.82"/><circle cx="412.9" cy="876.3" r="3.3" opacity="0.42"/><circle cx="662" cy="684" r="2.2" opacity="0.66"/><circle cx="451" cy="724.2" r="1.6" opacity="0.63"/><circle cx="512.9" cy="761.9" r="1.3" opacity="0.65"/><circle cx="565" cy="860" r="1.5" opacity="0.87"/><circle cx="659.2" cy="780.7" r="1.5" opacity="0.39"/><circle cx="561" cy="729.7" r="2.2" opacity="0.41"/><circle cx="814.7" cy="852.3" r="3.9" opacity="0.70"/><circle cx="548.8" cy="648.1" r="1.7" opacity="0.90"/><circle cx="586.1" cy="831.2" r="1.8" opacity="0.66"/><circle cx="541.2" cy="759.3" r="1.3" opacity="0.66"/><circle cx="485.1" cy="853.5" r="3.6" opacity="0.76"/><circle cx="643.6" cy="912.8" r="4.1" opacity="0.75"/><circle cx="639.8" cy="690.6" r="4.6" opacity="0.83"/><circle cx="861.8" cy="703.8" r="4.8" opacity="0.76"/><circle cx="666" cy="741.4" r="4.5" opacity="0.55"/><circle cx="704.7" cy="487.8" r="2" opacity="0.84"/><circle cx="726.6" cy="870.9" r="1.6" opacity="0.37"/><circle cx="625.3" cy="600.3" r="1.4" opacity="0.91"/><circle cx="658.5" cy="757.3" r="1.6" opacity="0.82"/><circle cx="457.7" cy="808.2" r="2.3" opacity="0.41"/><circle cx="520.5" cy="791" r="5.8" opacity="0.61"/><circle cx="441.2" cy="852.9" r="4.2" opacity="0.82"/><circle cx="584" cy="712.5" r="1.3" opacity="0.55"/><circle cx="774.3" cy="629.3" r="4.6" opacity="0.89"/><circle cx="521.5" cy="957" r="5.3" opacity="0.56"/><circle cx="673.3" cy="822.9" r="1.5" opacity="0.40"/><circle cx="639.4" cy="696.8" r="2" opacity="0.92"/><circle cx="961.5" cy="762.9" r="5.1" opacity="0.77"/><circle cx="492.8" cy="808.1" r="1.4" opacity="0.88"/><circle cx="527.6" cy="765" r="2.1" opacity="0.78"/><circle cx="738" cy="994.9" r="2" opacity="0.35"/><circle cx="733.1" cy="773.6" r="4.2" opacity="0.49"/><circle cx="538.9" cy="977.9" r="4.8" opacity="0.38"/><circle cx="683.6" cy="828.9" r="4.6" opacity="0.66"/><circle cx="577.2" cy="690.9" r="3" opacity="0.77"/><circle cx="489.4" cy="649.9" r="3.4" opacity="0.42"/><circle cx="420.8" cy="952" r="5.8" opacity="0.67"/><circle cx="768.6" cy="767.7" r="1.5" opacity="0.51"/><circle cx="667.9" cy="785.5" r="2.5" opacity="0.81"/><circle cx="584.7" cy="838" r="1.3" opacity="0.43"/><circle cx="511.3" cy="723.5" r="1.7" opacity="0.78"/><circle cx="742.6" cy="808.6" r="3.6" opacity="0.69"/><circle cx="648.5" cy="1009.9" r="2.8" opacity="0.56"/><circle cx="635.4" cy="729.6" r="2.5" opacity="0.79"/><circle cx="510.3" cy="815.4" r="1.8" opacity="0.64"/><circle cx="700.8" cy="831.3" r="2.2" opacity="0.87"/><circle cx="503.1" cy="769.5" r="4.1" opacity="0.46"/><circle cx="832.7" cy="956.7" r="2.1" opacity="0.52"/><circle cx="292" cy="663.6" r="1.5" opacity="0.82"/><circle cx="783.4" cy="826" r="2.6" opacity="0.64"/><circle cx="274.4" cy="855.7" r="4.2" opacity="0.49"/><circle cx="660.8" cy="685.7" r="3.8" opacity="0.87"/><circle cx="544.9" cy="734.5" r="6" opacity="0.72"/><circle cx="421.8" cy="770.4" r="2.4" opacity="0.62"/><circle cx="529.5" cy="952.5" r="3.5" opacity="0.54"/><circle cx="626" cy="819.4" r="5.3" opacity="0.93"/><circle cx="448.6" cy="579" r="5" opacity="0.77"/><circle cx="649.9" cy="738.1" r="1.3" opacity="0.93"/><circle cx="832" cy="891.4" r="1.4" opacity="0.94"/><circle cx="934" cy="693.5" r="7.3" opacity="0.46"/><circle cx="807.3" cy="803.3" r="2.9" opacity="0.90"/><circle cx="282" cy="788.8" r="1.4" opacity="0.88"/><circle cx="544.3" cy="750.5" r="1.2" opacity="0.68"/><circle cx="599.7" cy="837.2" r="4.9" opacity="0.82"/><circle cx="525.9" cy="787.4" r="2" opacity="0.63"/><circle cx="637.5" cy="812.9" r="3" opacity="0.78"/><circle cx="200.9" cy="625.1" r="3.8" opacity="0.53"/><circle cx="371.8" cy="969.6" r="5.5" opacity="0.36"/><circle cx="680.8" cy="845.4" r="3" opacity="0.66"/><circle cx="683.8" cy="685.3" r="1.5" opacity="0.60"/><circle cx="592.8" cy="698.8" r="1.7" opacity="0.36"/><circle cx="689.3" cy="802" r="1.9" opacity="0.59"/><circle cx="490.2" cy="697" r="1.9" opacity="0.81"/><circle cx="626.5" cy="813.2" r="4.5" opacity="0.65"/><circle cx="717.2" cy="777.9" r="1.2" opacity="0.37"/><circle cx="594.4" cy="657.7" r="2.3" opacity="0.83"/><circle cx="784.9" cy="732.1" r="1.2" opacity="0.94"/><circle cx="819.7" cy="786.5" r="1.5" opacity="0.75"/><circle cx="519.5" cy="937.8" r="3" opacity="0.75"/><circle cx="394.4" cy="644.3" r="1.3" opacity="0.86"/><circle cx="561.1" cy="611.1" r="4" opacity="0.80"/><circle cx="793.3" cy="842.6" r="2.2" opacity="0.85"/><circle cx="632.2" cy="657.2" r="4.8" opacity="0.64"/><circle cx="654.5" cy="807.2" r="3.5" opacity="0.89"/><circle cx="534.5" cy="813.8" r="3.3" opacity="0.67"/><circle cx="268.6" cy="689.2" r="3.7" opacity="0.91"/></g>
  <!-- Пистолет -->
  <g transform="rotate(42 232 214)">
    <rect x="-188" y="199" width="400" height="30" rx="8" fill="url(#gun)"/>
    <rect x="-188" y="201" width="400" height="3" fill="#fff" opacity="0.28"/>
    <rect x="188" y="193" width="34" height="42" rx="6" fill="#ff4646"/>
    <rect x="220" y="205" width="16" height="18" rx="3" fill="#C3CDDD"/>
  </g>
  <rect width="800" height="1000" fill="url(#dimJ)"/>
</svg>
