<svg xmlns="http://www.w3.org/2000/svg" xmlns:xlink="http://www.w3.org/1999/xlink" viewBox="0 0 800 1000" preserveAspectRatio="xMidYMid slice">
  <!-- Временная картинка: мокрое стекло после мойки. Замените фотографией работы. -->
  <defs><linearGradient id="night" x1="0" y1="0" x2="0" y2="1"><stop offset="0" stop-color="#360b19"/><stop offset="0.6" stop-color="#18050b"/><stop offset="1" stop-color="#060103"/></linearGradient>
    <radialGradient id="beadG" cx="0.5" cy="0.5" r="0.5" fx="0.64" fy="0.7"><stop offset="0" stop-color="#ffcfe3" stop-opacity="0.75"/><stop offset="0.4" stop-color="#e65d92" stop-opacity="0.35"/><stop offset="0.82" stop-color="#1c0309" stop-opacity="0.6"/><stop offset="1" stop-color="#ffbcd4" stop-opacity="0.6"/></radialGradient>
    <radialGradient id="dimG" cx="0.5" cy="0.4" r="0.85"><stop offset="0.5" stop-color="#000" stop-opacity="0"/><stop offset="1" stop-color="#000" stop-opacity="0.7"/></radialGradient>
    <filter id="defocus"><feGaussianBlur stdDeviation="7"/></filter></defs>
  <rect width="800" height="1000" fill="url(#night)"/>
  <g filter="url(#defocus)"><circle cx="532.4" cy="245" r="58.8" fill="#ff8fb9" opacity="0.24"/><circle cx="597.5" cy="746" r="87.6" fill="#ff8fb9" opacity="0.32"/><circle cx="320.4" cy="154" r="95.5" fill="#ff468b" opacity="0.24"/><circle cx="688.5" cy="332.6" r="94.4" fill="#ff8fb9" opacity="0.15"/><circle cx="226.3" cy="107.9" r="119.2" fill="#ff8fb9" opacity="0.27"/><circle cx="304.1" cy="682.8" r="69.2" fill="#ffeaf1" opacity="0.23"/><circle cx="662" cy="136.5" r="85.5" fill="#ffeaf1" opacity="0.14"/><circle cx="350.8" cy="163.6" r="119.7" fill="#ff8fb9" opacity="0.11"/><circle cx="141.2" cy="598.5" r="47.9" fill="#ffeaf1" opacity="0.08"/><circle cx="604.9" cy="441.6" r="34.2" fill="#ff8fb9" opacity="0.30"/><circle cx="596.5" cy="92.7" r="75.2" fill="#ff468b" opacity="0.24"/><circle cx="177.6" cy="433.9" r="44.5" fill="#ffeaf1" opacity="0.09"/><circle cx="167.9" cy="620.6" r="121.6" fill="#ff8fb9" opacity="0.27"/><circle cx="312.7" cy="178.6" r="57.7" fill="#ffeaf1" opacity="0.10"/><circle cx="550.5" cy="354.1" r="114.6" fill="#ff8fb9" opacity="0.20"/><circle cx="400.3" cy="377.9" r="38.2" fill="#ff8fb9" opacity="0.30"/><circle cx="383.7" cy="61.9" r="90" fill="#ff8fb9" opacity="0.29"/><circle cx="773.9" cy="728.4" r="126.2" fill="#ffeaf1" opacity="0.27"/><circle cx="287.4" cy="718.3" r="124.4" fill="#ff8fb9" opacity="0.26"/><circle cx="702.5" cy="458.2" r="98.8" fill="#ff8fb9" opacity="0.11"/><circle cx="204.5" cy="515.8" r="95" fill="#ffeaf1" opacity="0.27"/><circle cx="412" cy="728.3" r="35.1" fill="#ffeaf1" opacity="0.21"/><circle cx="640.1" cy="506.1" r="102.4" fill="#ffeaf1" opacity="0.24"/><circle cx="110.2" cy="631.5" r="124.9" fill="#ff8fb9" opacity="0.25"/><circle cx="364" cy="322.7" r="48.3" fill="#ffeaf1" opacity="0.16"/><circle cx="281.5" cy="649.2" r="52.7" fill="#ff468b" opacity="0.28"/><circle cx="238.4" cy="261.2" r="77.2" fill="#ff468b" opacity="0.21"/><circle cx="481.5" cy="269.2" r="121.5" fill="#ff8fb9" opacity="0.11"/><circle cx="752.3" cy="436.4" r="100.3" fill="#ffeaf1" opacity="0.11"/><circle cx="761.4" cy="398.1" r="114.8" fill="#ff8fb9" opacity="0.28"/></g>
  <g fill="none" stroke="#ffdcea" stroke-opacity="0.22" stroke-linecap="round" stroke-linejoin="round"><path d="M606.8 27.1L608 84.1L606.8 146.9L611.4 218.7L615.4 284.8L602.7 369.5L608.2 460L608.2 567.6" stroke-width="3.3"/><ellipse cx="608.2" cy="573.6" rx="8" ry="11" fill="url(#beadG)" stroke="none"/><path d="M309.4 140L317.2 233.5L317.6 328.7L311.7 391.5L306.2 499.9L298.5 601.2" stroke-width="3.1"/><ellipse cx="298.5" cy="607.2" rx="8" ry="11" fill="url(#beadG)" stroke="none"/><path d="M256.4 128.9L251.5 230.7L250.6 292.8L259 368.9L254.4 431.7L265.8 512.6L264.3 571.1L276.3 644L275.9 730" stroke-width="5.3"/><ellipse cx="275.9" cy="736" rx="8" ry="11" fill="url(#beadG)" stroke="none"/><path d="M679.9 127.1L686.5 219.3L682.2 306.7L679.9 400.5L690.1 459.5L680.4 540.3L671.3 595.4L664.3 661.9L653.6 712.4" stroke-width="5.7"/><ellipse cx="653.6" cy="718.4" rx="8" ry="11" fill="url(#beadG)" stroke="none"/><path d="M168.8 255.6L169.1 354.1L176.5 423.6L167.2 511.9L161.9 563L161 648.2L163.5 733.8L155.1 832.4L145.3 912.8L143 971.2" stroke-width="4.1"/><ellipse cx="143" cy="977.2" rx="8" ry="11" fill="url(#beadG)" stroke="none"/><path d="M110.4 287.5L107.7 364.6L116.1 450.3L119 538.3L122 634L121 731.3L110.6 828.1" stroke-width="3.5"/><ellipse cx="110.6" cy="834.1" rx="8" ry="11" fill="url(#beadG)" stroke="none"/><path d="M396.4 228.7L401.5 318.1L402.6 398.2L400.3 449.9L387.4 543.3L387.3 644.2" stroke-width="3.1"/><ellipse cx="387.3" cy="650.2" rx="8" ry="11" fill="url(#beadG)" stroke="none"/><path d="M57.1 273.1L44.1 329.7L44.3 439.6L47.5 545.2L46.5 595.5L42.2 666.8L54.1 737.6L42.2 808.8L40.6 887.9" stroke-width="5.9"/><ellipse cx="40.6" cy="893.9" rx="8" ry="11" fill="url(#beadG)" stroke="none"/><path d="M606 21.4L603 88.5L604.6 153.6L616.1 204.9L615.6 286.3L605.6 363.4L617.7 429L605.1 493.9L605.9 573.7L614.8 661.2L617.2 734.4L622.4 810.7L615.4 890.3" stroke-width="5.8"/><ellipse cx="615.4" cy="896.3" rx="8" ry="11" fill="url(#beadG)" stroke="none"/></g>
  <ellipse cx="497.9" cy="38.6" rx="4" ry="4.7" fill="url(#beadG)"/><circle cx="496.6" cy="36.9" r="0.9" fill="#fff" opacity="0.9"/><ellipse cx="354.5" cy="349.8" rx="7.7" ry="9.1" fill="url(#beadG)"/><circle cx="351.8" cy="346.5" r="1.7" fill="#fff" opacity="0.9"/><ellipse cx="140.6" cy="423.9" rx="12.1" ry="14.2" fill="url(#beadG)"/><circle cx="136.4" cy="418.7" r="2.6" fill="#fff" opacity="0.9"/><ellipse cx="6.1" cy="793.2" rx="5.6" ry="6.6" fill="url(#beadG)"/><circle cx="4.1" cy="790.7" r="1.2" fill="#fff" opacity="0.9"/><ellipse cx="249.4" cy="387.8" rx="9.6" ry="11.2" fill="url(#beadG)"/><circle cx="246.1" cy="383.6" r="2.1" fill="#fff" opacity="0.9"/><ellipse cx="2" cy="261.3" rx="15.1" ry="17.7" fill="url(#beadG)"/><circle cx="-3.3" cy="254.8" r="3.3" fill="#fff" opacity="0.9"/><ellipse cx="536.5" cy="300.9" rx="4.7" ry="5.5" fill="url(#beadG)"/><circle cx="534.9" cy="298.8" r="1" fill="#fff" opacity="0.9"/><ellipse cx="215.2" cy="615.5" rx="4.9" ry="5.8" fill="url(#beadG)"/><circle cx="213.5" cy="613.3" r="1.1" fill="#fff" opacity="0.9"/><ellipse cx="357.3" cy="476" rx="7.7" ry="9" fill="url(#beadG)"/><circle cx="354.6" cy="472.7" r="1.7" fill="#fff" opacity="0.9"/><ellipse cx="232.3" cy="470.4" rx="2.9" ry="3.4" fill="url(#beadG)"/><circle cx="231.3" cy="469.2" r="0.6" fill="#fff" opacity="0.9"/><ellipse cx="514" cy="885.8" rx="9.2" ry="10.7" fill="url(#beadG)"/><circle cx="510.8" cy="881.8" r="2" fill="#fff" opacity="0.9"/><ellipse cx="766.9" cy="338.2" rx="15" ry="17.6" fill="url(#beadG)"/><circle cx="761.6" cy="331.7" r="3.3" fill="#fff" opacity="0.9"/><ellipse cx="171.2" cy="733.9" rx="9.8" ry="11.5" fill="url(#beadG)"/><circle cx="167.7" cy="729.7" r="2.1" fill="#fff" opacity="0.9"/><ellipse cx="627.4" cy="92.6" rx="3.2" ry="3.8" fill="url(#beadG)"/><circle cx="626.2" cy="91.2" r="0.7" fill="#fff" opacity="0.9"/><ellipse cx="613.5" cy="780.8" rx="3.8" ry="4.5" fill="url(#beadG)"/><circle cx="612.2" cy="779.1" r="0.8" fill="#fff" opacity="0.9"/><ellipse cx="497.4" cy="925.7" rx="8" ry="9.4" fill="url(#beadG)"/><circle cx="494.7" cy="922.2" r="1.7" fill="#fff" opacity="0.9"/><ellipse cx="711.9" cy="597.9" rx="18.1" ry="21.2" fill="url(#beadG)"/><circle cx="705.6" cy="590" r="3.9" fill="#fff" opacity="0.9"/><ellipse cx="691.9" cy="818.5" rx="3.5" ry="4.2" fill="url(#beadG)"/><circle cx="690.6" cy="816.9" r="0.8" fill="#fff" opacity="0.9"/><ellipse cx="454.7" cy="667.4" rx="13.4" ry="15.7" fill="url(#beadG)"/><circle cx="450.1" cy="661.6" r="2.9" fill="#fff" opacity="0.9"/><ellipse cx="483.2" cy="661.8" rx="7.5" ry="8.7" fill="url(#beadG)"/><circle cx="480.6" cy="658.6" r="1.6" fill="#fff" opacity="0.9"/><ellipse cx="44.4" cy="628.4" rx="4.6" ry="5.4" fill="url(#beadG)"/><circle cx="42.8" cy="626.4" r="1" fill="#fff" opacity="0.9"/><ellipse cx="588.3" cy="551" rx="6.2" ry="7.3" fill="url(#beadG)"/><circle cx="586.2" cy="548.2" r="1.4" fill="#fff" opacity="0.9"/><ellipse cx="668.7" cy="476.4" rx="10.8" ry="12.6" fill="url(#beadG)"/><circle cx="664.9" cy="471.7" r="2.3" fill="#fff" opacity="0.9"/><ellipse cx="519.5" cy="120.3" rx="6.2" ry="7.2" fill="url(#beadG)"/><circle cx="517.3" cy="117.6" r="1.3" fill="#fff" opacity="0.9"/><ellipse cx="568.2" cy="651.3" rx="15.8" ry="18.5" fill="url(#beadG)"/><circle cx="562.7" cy="644.5" r="3.4" fill="#fff" opacity="0.9"/><ellipse cx="19.7" cy="633.1" rx="6.6" ry="7.7" fill="url(#beadG)"/><circle cx="17.4" cy="630.2" r="1.4" fill="#fff" opacity="0.9"/><ellipse cx="291.6" cy="864.7" rx="3.6" ry="4.2" fill="url(#beadG)"/><circle cx="290.4" cy="863.2" r="0.8" fill="#fff" opacity="0.9"/><ellipse cx="159.5" cy="619.1" rx="10.8" ry="12.6" fill="url(#beadG)"/><circle cx="155.8" cy="614.4" r="2.3" fill="#fff" opacity="0.9"/><ellipse cx="353.4" cy="527" rx="12.2" ry="14.3" fill="url(#beadG)"/><circle cx="349.2" cy="521.8" r="2.6" fill="#fff" opacity="0.9"/><ellipse cx="69.8" cy="15.7" rx="3.9" ry="4.6" fill="url(#beadG)"/><circle cx="68.5" cy="14" r="0.9" fill="#fff" opacity="0.9"/><ellipse cx="158" cy="571.4" rx="3.9" ry="4.6" fill="url(#beadG)"/><circle cx="156.6" cy="569.7" r="0.8" fill="#fff" opacity="0.9"/><ellipse cx="634.8" cy="627.4" rx="18.1" ry="21.2" fill="url(#beadG)"/><circle cx="628.5" cy="619.5" r="3.9" fill="#fff" opacity="0.9"/><ellipse cx="89.2" cy="69.5" rx="3.4" ry="4" fill="url(#beadG)"/><circle cx="88" cy="68" r="0.7" fill="#fff" opacity="0.9"/><ellipse cx="95.2" cy="522.4" rx="3.5" ry="4.1" fill="url(#beadG)"/><circle cx="94" cy="520.8" r="0.8" fill="#fff" opacity="0.9"/><ellipse cx="12.6" cy="731" rx="9.7" ry="11.4" fill="url(#beadG)"/><circle cx="9.2" cy="726.8" r="2.1" fill="#fff" opacity="0.9"/><ellipse cx="525.7" cy="171.8" rx="7.3" ry="8.5" fill="url(#beadG)"/><circle cx="523.2" cy="168.6" r="1.6" fill="#fff" opacity="0.9"/><ellipse cx="226.1" cy="44.6" rx="9.5" ry="11.1" fill="url(#beadG)"/><circle cx="222.8" cy="40.5" r="2.1" fill="#fff" opacity="0.9"/><ellipse cx="42.9" cy="966.9" rx="4.8" ry="5.7" fill="url(#beadG)"/><circle cx="41.2" cy="964.8" r="1" fill="#fff" opacity="0.9"/><ellipse cx="504.5" cy="108.5" rx="6.7" ry="7.9" fill="url(#beadG)"/><circle cx="502.2" cy="105.6" r="1.5" fill="#fff" opacity="0.9"/><ellipse cx="539.2" cy="725.2" rx="7.5" ry="8.8" fill="url(#beadG)"/><circle cx="536.6" cy="722" r="1.6" fill="#fff" opacity="0.9"/><ellipse cx="35.9" cy="19.3" rx="3" ry="3.5" fill="url(#beadG)"/><circle cx="34.9" cy="18" r="0.6" fill="#fff" opacity="0.9"/><ellipse cx="338.9" cy="724.5" rx="4.8" ry="5.6" fill="url(#beadG)"/><circle cx="337.3" cy="722.5" r="1" fill="#fff" opacity="0.9"/><ellipse cx="298.7" cy="615.7" rx="2.9" ry="3.5" fill="url(#beadG)"/><circle cx="297.6" cy="614.4" r="0.6" fill="#fff" opacity="0.9"/><ellipse cx="739.6" cy="968.6" rx="4.1" ry="4.8" fill="url(#beadG)"/><circle cx="738.2" cy="966.8" r="0.9" fill="#fff" opacity="0.9"/><ellipse cx="721.7" cy="174.7" rx="3.2" ry="3.7" fill="url(#beadG)"/><circle cx="720.6" cy="173.3" r="0.7" fill="#fff" opacity="0.9"/><ellipse cx="44.2" cy="99.6" rx="9.2" ry="10.8" fill="url(#beadG)"/><circle cx="40.9" cy="95.6" r="2" fill="#fff" opacity="0.9"/><ellipse cx="49.8" cy="560.2" rx="3" ry="3.6" fill="url(#beadG)"/><circle cx="48.7" cy="558.9" r="0.7" fill="#fff" opacity="0.9"/><ellipse cx="292.1" cy="807.4" rx="3.3" ry="3.9" fill="url(#beadG)"/><circle cx="291" cy="806" r="0.7" fill="#fff" opacity="0.9"/><ellipse cx="84" cy="964.8" rx="2.8" ry="3.3" fill="url(#beadG)"/><circle cx="83" cy="963.6" r="0.6" fill="#fff" opacity="0.9"/><ellipse cx="598.3" cy="278.2" rx="8.7" ry="10.2" fill="url(#beadG)"/><circle cx="595.3" cy="274.4" r="1.9" fill="#fff" opacity="0.9"/><ellipse cx="93.5" cy="276" rx="5.6" ry="6.5" fill="url(#beadG)"/><circle cx="91.6" cy="273.5" r="1.2" fill="#fff" opacity="0.9"/><ellipse cx="690.4" cy="935.2" rx="5.8" ry="6.8" fill="url(#beadG)"/><circle cx="688.4" cy="932.7" r="1.3" fill="#fff" opacity="0.9"/><ellipse cx="122.7" cy="600.7" rx="2.9" ry="3.4" fill="url(#beadG)"/><circle cx="121.7" cy="599.4" r="0.6" fill="#fff" opacity="0.9"/><ellipse cx="668.8" cy="76" rx="7.8" ry="9.1" fill="url(#beadG)"/><circle cx="666.1" cy="72.7" r="1.7" fill="#fff" opacity="0.9"/><ellipse cx="550.9" cy="572.2" rx="4" ry="4.7" fill="url(#beadG)"/><circle cx="549.6" cy="570.5" r="0.9" fill="#fff" opacity="0.9"/><ellipse cx="544" cy="139" rx="10.5" ry="12.4" fill="url(#beadG)"/><circle cx="540.3" cy="134.4" r="2.3" fill="#fff" opacity="0.9"/><ellipse cx="367.9" cy="627.6" rx="12.4" ry="14.6" fill="url(#beadG)"/><circle cx="363.6" cy="622.2" r="2.7" fill="#fff" opacity="0.9"/><ellipse cx="264.8" cy="895.3" rx="7.4" ry="8.7" fill="url(#beadG)"/><circle cx="262.2" cy="892.1" r="1.6" fill="#fff" opacity="0.9"/><ellipse cx="683.2" cy="723.1" rx="6.5" ry="7.6" fill="url(#beadG)"/><circle cx="681" cy="720.3" r="1.4" fill="#fff" opacity="0.9"/><ellipse cx="437.2" cy="66.6" rx="9.6" ry="11.2" fill="url(#beadG)"/><circle cx="433.8" cy="62.4" r="2.1" fill="#fff" opacity="0.9"/><ellipse cx="717.5" cy="46.3" rx="10.6" ry="12.5" fill="url(#beadG)"/><circle cx="713.8" cy="41.7" r="2.3" fill="#fff" opacity="0.9"/><ellipse cx="685.9" cy="0.2" rx="4" ry="4.7" fill="url(#beadG)"/><circle cx="684.5" cy="-1.6" r="0.9" fill="#fff" opacity="0.9"/><ellipse cx="239.6" cy="686.1" rx="3.1" ry="3.7" fill="url(#beadG)"/><circle cx="238.5" cy="684.7" r="0.7" fill="#fff" opacity="0.9"/><ellipse cx="632.9" cy="184.2" rx="4.8" ry="5.6" fill="url(#beadG)"/><circle cx="631.2" cy="182.1" r="1" fill="#fff" opacity="0.9"/><ellipse cx="475.5" cy="882.9" rx="3" ry="3.5" fill="url(#beadG)"/><circle cx="474.5" cy="881.6" r="0.6" fill="#fff" opacity="0.9"/><ellipse cx="652" cy="843.8" rx="10.2" ry="12" fill="url(#beadG)"/><circle cx="648.5" cy="839.3" r="2.2" fill="#fff" opacity="0.9"/><ellipse cx="127.9" cy="59.2" rx="3.3" ry="3.8" fill="url(#beadG)"/><circle cx="126.8" cy="57.8" r="0.7" fill="#fff" opacity="0.9"/><ellipse cx="654.9" cy="130.5" rx="11.8" ry="13.8" fill="url(#beadG)"/><circle cx="650.8" cy="125.4" r="2.6" fill="#fff" opacity="0.9"/><ellipse cx="609.7" cy="415" rx="18" ry="21.2" fill="url(#beadG)"/><circle cx="603.4" cy="407.1" r="3.9" fill="#fff" opacity="0.9"/><ellipse cx="185.1" cy="957.1" rx="3.7" ry="4.4" fill="url(#beadG)"/><circle cx="183.8" cy="955.5" r="0.8" fill="#fff" opacity="0.9"/><ellipse cx="305.5" cy="671.2" rx="5.9" ry="6.9" fill="url(#beadG)"/><circle cx="303.5" cy="668.6" r="1.3" fill="#fff" opacity="0.9"/><ellipse cx="232.9" cy="189.4" rx="13.1" ry="15.3" fill="url(#beadG)"/><circle cx="228.4" cy="183.7" r="2.8" fill="#fff" opacity="0.9"/><ellipse cx="343" cy="995.1" rx="6.9" ry="8.2" fill="url(#beadG)"/><circle cx="340.5" cy="992.1" r="1.5" fill="#fff" opacity="0.9"/><ellipse cx="662.1" cy="606" rx="8" ry="9.4" fill="url(#beadG)"/><circle cx="659.3" cy="602.5" r="1.7" fill="#fff" opacity="0.9"/><ellipse cx="406.1" cy="386.3" rx="3.7" ry="4.3" fill="url(#beadG)"/><circle cx="404.9" cy="384.6" r="0.8" fill="#fff" opacity="0.9"/><ellipse cx="731.6" cy="203.6" rx="10.7" ry="12.6" fill="url(#beadG)"/><circle cx="727.9" cy="199" r="2.3" fill="#fff" opacity="0.9"/><ellipse cx="318.7" cy="93.5" rx="17.2" ry="20.2" fill="url(#beadG)"/><circle cx="312.7" cy="86" r="3.7" fill="#fff" opacity="0.9"/><ellipse cx="609.6" cy="452.2" rx="6.9" ry="8.1" fill="url(#beadG)"/><circle cx="607.2" cy="449.2" r="1.5" fill="#fff" opacity="0.9"/><ellipse cx="385" cy="182" rx="18" ry="21.1" fill="url(#beadG)"/><circle cx="378.7" cy="174.2" r="3.9" fill="#fff" opacity="0.9"/><ellipse cx="104.4" cy="705.7" rx="8.5" ry="10" fill="url(#beadG)"/><circle cx="101.5" cy="702" r="1.8" fill="#fff" opacity="0.9"/><ellipse cx="10.9" cy="43.1" rx="4.6" ry="5.4" fill="url(#beadG)"/><circle cx="9.2" cy="41.1" r="1" fill="#fff" opacity="0.9"/><ellipse cx="250.4" cy="64.7" rx="6.4" ry="7.6" fill="url(#beadG)"/><circle cx="248.1" cy="61.9" r="1.4" fill="#fff" opacity="0.9"/><ellipse cx="498.6" cy="297" rx="10.4" ry="12.3" fill="url(#beadG)"/><circle cx="495" cy="292.5" r="2.3" fill="#fff" opacity="0.9"/><ellipse cx="694.1" cy="374.6" rx="3.5" ry="4.1" fill="url(#beadG)"/><circle cx="692.8" cy="373.1" r="0.8" fill="#fff" opacity="0.9"/><ellipse cx="533.1" cy="617.8" rx="4.2" ry="4.9" fill="url(#beadG)"/><circle cx="531.7" cy="616" r="0.9" fill="#fff" opacity="0.9"/><ellipse cx="424.4" cy="213.1" rx="5.8" ry="6.8" fill="url(#beadG)"/><circle cx="422.3" cy="210.6" r="1.3" fill="#fff" opacity="0.9"/><ellipse cx="501.3" cy="980.1" rx="3.8" ry="4.4" fill="url(#beadG)"/><circle cx="500" cy="978.5" r="0.8" fill="#fff" opacity="0.9"/><ellipse cx="127.7" cy="401.1" rx="2.9" ry="3.4" fill="url(#beadG)"/><circle cx="126.7" cy="399.9" r="0.6" fill="#fff" opacity="0.9"/><ellipse cx="296.6" cy="715.8" rx="13.2" ry="15.4" fill="url(#beadG)"/><circle cx="292.1" cy="710.1" r="2.9" fill="#fff" opacity="0.9"/><ellipse cx="749.8" cy="453" rx="10.2" ry="12" fill="url(#beadG)"/><circle cx="746.3" cy="448.6" r="2.2" fill="#fff" opacity="0.9"/><ellipse cx="366.3" cy="545" rx="4" ry="4.6" fill="url(#beadG)"/><circle cx="364.9" cy="543.3" r="0.9" fill="#fff" opacity="0.9"/><ellipse cx="668.4" cy="515.8" rx="3.4" ry="4" fill="url(#beadG)"/><circle cx="667.2" cy="514.3" r="0.7" fill="#fff" opacity="0.9"/><ellipse cx="27.4" cy="541" rx="3.1" ry="3.6" fill="url(#beadG)"/><circle cx="26.4" cy="539.7" r="0.7" fill="#fff" opacity="0.9"/><ellipse cx="234.2" cy="631" rx="3.4" ry="4" fill="url(#beadG)"/><circle cx="233" cy="629.5" r="0.7" fill="#fff" opacity="0.9"/><ellipse cx="718.3" cy="470.7" rx="10.8" ry="12.6" fill="url(#beadG)"/><circle cx="714.6" cy="466" r="2.3" fill="#fff" opacity="0.9"/><ellipse cx="286" cy="255.5" rx="3.5" ry="4.2" fill="url(#beadG)"/><circle cx="284.8" cy="254" r="0.8" fill="#fff" opacity="0.9"/><ellipse cx="692.5" cy="141.8" rx="8.6" ry="10" fill="url(#beadG)"/><circle cx="689.6" cy="138.1" r="1.9" fill="#fff" opacity="0.9"/><ellipse cx="647.6" cy="519.2" rx="3.3" ry="3.8" fill="url(#beadG)"/><circle cx="646.5" cy="517.7" r="0.7" fill="#fff" opacity="0.9"/><ellipse cx="179.2" cy="243.6" rx="7.4" ry="8.6" fill="url(#beadG)"/><circle cx="176.6" cy="240.4" r="1.6" fill="#fff" opacity="0.9"/><ellipse cx="732" cy="373" rx="5.5" ry="6.5" fill="url(#beadG)"/><circle cx="730.1" cy="370.6" r="1.2" fill="#fff" opacity="0.9"/><ellipse cx="470.1" cy="459.1" rx="9.3" ry="11" fill="url(#beadG)"/><circle cx="466.9" cy="455" r="2" fill="#fff" opacity="0.9"/><ellipse cx="444.6" cy="96.3" rx="8.1" ry="9.5" fill="url(#beadG)"/><circle cx="441.8" cy="92.7" r="1.8" fill="#fff" opacity="0.9"/><ellipse cx="76.8" cy="59.9" rx="4" ry="4.6" fill="url(#beadG)"/><circle cx="75.5" cy="58.2" r="0.9" fill="#fff" opacity="0.9"/><ellipse cx="471" cy="543.9" rx="4.6" ry="5.4" fill="url(#beadG)"/><circle cx="469.4" cy="541.9" r="1" fill="#fff" opacity="0.9"/><ellipse cx="9.8" cy="922.7" rx="15.3" ry="17.9" fill="url(#beadG)"/><circle cx="4.5" cy="916" r="3.3" fill="#fff" opacity="0.9"/><ellipse cx="569.6" cy="293.2" rx="8.7" ry="10.2" fill="url(#beadG)"/><circle cx="566.6" cy="289.4" r="1.9" fill="#fff" opacity="0.9"/><ellipse cx="217.8" cy="1.1" rx="4.4" ry="5.1" fill="url(#beadG)"/><circle cx="216.3" cy="-0.8" r="0.9" fill="#fff" opacity="0.9"/><ellipse cx="207.3" cy="632.7" rx="5.1" ry="6" fill="url(#beadG)"/><circle cx="205.5" cy="630.5" r="1.1" fill="#fff" opacity="0.9"/><ellipse cx="288.1" cy="668" rx="5.3" ry="6.2" fill="url(#beadG)"/><circle cx="286.2" cy="665.7" r="1.1" fill="#fff" opacity="0.9"/><ellipse cx="264.1" cy="955.5" rx="12" ry="14.1" fill="url(#beadG)"/><circle cx="260" cy="950.3" r="2.6" fill="#fff" opacity="0.9"/><ellipse cx="357.9" cy="943.3" rx="11.2" ry="13.2" fill="url(#beadG)"/><circle cx="354" cy="938.4" r="2.4" fill="#fff" opacity="0.9"/><ellipse cx="650.8" cy="163" rx="12.3" ry="14.5" fill="url(#beadG)"/><circle cx="646.5" cy="157.6" r="2.7" fill="#fff" opacity="0.9"/><ellipse cx="542.6" cy="72.8" rx="9.6" ry="11.2" fill="url(#beadG)"/><circle cx="539.3" cy="68.6" r="2.1" fill="#fff" opacity="0.9"/><ellipse cx="492.7" cy="495.9" rx="8" ry="9.4" fill="url(#beadG)"/><circle cx="489.9" cy="492.5" r="1.7" fill="#fff" opacity="0.9"/><ellipse cx="570.8" cy="931.1" rx="3.7" ry="4.4" fill="url(#beadG)"/><circle cx="569.5" cy="929.5" r="0.8" fill="#fff" opacity="0.9"/><ellipse cx="294.5" cy="994" rx="4" ry="4.6" fill="url(#beadG)"/><circle cx="293.1" cy="992.2" r="0.9" fill="#fff" opacity="0.9"/><ellipse cx="594.7" cy="159.7" rx="3.7" ry="4.3" fill="url(#beadG)"/><circle cx="593.4" cy="158.1" r="0.8" fill="#fff" opacity="0.9"/><ellipse cx="352.3" cy="115.9" rx="17.2" ry="20.2" fill="url(#beadG)"/><circle cx="346.4" cy="108.4" r="3.7" fill="#fff" opacity="0.9"/><ellipse cx="565.1" cy="80.6" rx="8.4" ry="9.9" fill="url(#beadG)"/><circle cx="562.2" cy="77" r="1.8" fill="#fff" opacity="0.9"/><ellipse cx="395.5" cy="677" rx="3.3" ry="3.9" fill="url(#beadG)"/><circle cx="394.3" cy="675.6" r="0.7" fill="#fff" opacity="0.9"/><ellipse cx="288.2" cy="488.9" rx="5.8" ry="6.8" fill="url(#beadG)"/><circle cx="286.2" cy="486.4" r="1.3" fill="#fff" opacity="0.9"/><ellipse cx="344.5" cy="964.1" rx="8.4" ry="9.9" fill="url(#beadG)"/><circle cx="341.6" cy="960.4" r="1.8" fill="#fff" opacity="0.9"/><ellipse cx="648.5" cy="972.2" rx="3.8" ry="4.4" fill="url(#beadG)"/><circle cx="647.1" cy="970.5" r="0.8" fill="#fff" opacity="0.9"/><ellipse cx="587.6" cy="304.4" rx="8.8" ry="10.4" fill="url(#beadG)"/><circle cx="584.5" cy="300.6" r="1.9" fill="#fff" opacity="0.9"/><ellipse cx="132.7" cy="466.1" rx="8" ry="9.4" fill="url(#beadG)"/><circle cx="129.9" cy="462.6" r="1.7" fill="#fff" opacity="0.9"/><ellipse cx="73.9" cy="830.8" rx="11.7" ry="13.7" fill="url(#beadG)"/><circle cx="69.8" cy="825.8" r="2.5" fill="#fff" opacity="0.9"/><ellipse cx="111.9" cy="49.8" rx="6.3" ry="7.5" fill="url(#beadG)"/><circle cx="109.7" cy="47" r="1.4" fill="#fff" opacity="0.9"/><ellipse cx="193.2" cy="440.4" rx="17.9" ry="21" fill="url(#beadG)"/><circle cx="187" cy="432.6" r="3.9" fill="#fff" opacity="0.9"/><ellipse cx="303.5" cy="597" rx="3.2" ry="3.7" fill="url(#beadG)"/><circle cx="302.4" cy="595.6" r="0.7" fill="#fff" opacity="0.9"/><ellipse cx="472.7" cy="372.3" rx="7.8" ry="9.1" fill="url(#beadG)"/><circle cx="470" cy="368.9" r="1.7" fill="#fff" opacity="0.9"/><ellipse cx="107.4" cy="311.7" rx="4.2" ry="5" fill="url(#beadG)"/><circle cx="105.9" cy="309.8" r="0.9" fill="#fff" opacity="0.9"/><ellipse cx="795.4" cy="197.6" rx="8.2" ry="9.6" fill="url(#beadG)"/><circle cx="792.5" cy="194" r="1.8" fill="#fff" opacity="0.9"/><ellipse cx="530.2" cy="36.1" rx="5.7" ry="6.6" fill="url(#beadG)"/><circle cx="528.3" cy="33.6" r="1.2" fill="#fff" opacity="0.9"/><ellipse cx="407.7" cy="294.4" rx="3.4" ry="4" fill="url(#beadG)"/><circle cx="406.6" cy="293" r="0.7" fill="#fff" opacity="0.9"/><ellipse cx="58.6" cy="378.8" rx="4.3" ry="5" fill="url(#beadG)"/><circle cx="57.1" cy="377" r="0.9" fill="#fff" opacity="0.9"/><ellipse cx="301.1" cy="119.2" rx="4.2" ry="5" fill="url(#beadG)"/><circle cx="299.6" cy="117.3" r="0.9" fill="#fff" opacity="0.9"/><ellipse cx="150.4" cy="11.8" rx="8.4" ry="9.9" fill="url(#beadG)"/><circle cx="147.5" cy="8.1" r="1.8" fill="#fff" opacity="0.9"/><ellipse cx="339.8" cy="611.1" rx="7.6" ry="8.9" fill="url(#beadG)"/><circle cx="337.1" cy="607.8" r="1.7" fill="#fff" opacity="0.9"/><ellipse cx="86.7" cy="427.1" rx="3.2" ry="3.7" fill="url(#beadG)"/><circle cx="85.6" cy="425.7" r="0.7" fill="#fff" opacity="0.9"/><ellipse cx="721.6" cy="258.2" rx="2.9" ry="3.4" fill="url(#beadG)"/><circle cx="720.6" cy="257" r="0.6" fill="#fff" opacity="0.9"/><ellipse cx="540.7" cy="251" rx="10" ry="11.7" fill="url(#beadG)"/><circle cx="537.3" cy="246.6" r="2.2" fill="#fff" opacity="0.9"/><ellipse cx="150.3" cy="846.8" rx="3.5" ry="4.1" fill="url(#beadG)"/><circle cx="149.1" cy="845.2" r="0.8" fill="#fff" opacity="0.9"/><ellipse cx="430.6" cy="401" rx="4" ry="4.8" fill="url(#beadG)"/><circle cx="429.2" cy="399.3" r="0.9" fill="#fff" opacity="0.9"/><ellipse cx="342.3" cy="460.2" rx="3.2" ry="3.8" fill="url(#beadG)"/><circle cx="341.2" cy="458.8" r="0.7" fill="#fff" opacity="0.9"/><ellipse cx="794.9" cy="232.9" rx="11" ry="13" fill="url(#beadG)"/><circle cx="791" cy="228.1" r="2.4" fill="#fff" opacity="0.9"/><ellipse cx="224.2" cy="106.5" rx="7.4" ry="8.6" fill="url(#beadG)"/><circle cx="221.6" cy="103.3" r="1.6" fill="#fff" opacity="0.9"/><ellipse cx="703.7" cy="775.8" rx="4.6" ry="5.4" fill="url(#beadG)"/><circle cx="702.1" cy="773.8" r="1" fill="#fff" opacity="0.9"/><ellipse cx="389.1" cy="748.6" rx="3" ry="3.5" fill="url(#beadG)"/><circle cx="388.1" cy="747.3" r="0.6" fill="#fff" opacity="0.9"/><ellipse cx="504" cy="555.7" rx="5" ry="5.9" fill="url(#beadG)"/><circle cx="502.2" cy="553.5" r="1.1" fill="#fff" opacity="0.9"/><ellipse cx="62.1" cy="306.7" rx="7" ry="8.2" fill="url(#beadG)"/><circle cx="59.6" cy="303.7" r="1.5" fill="#fff" opacity="0.9"/>
  <rect width="800" height="1000" fill="url(#dimG)"/>
</svg>
