<svg xmlns="http://www.w3.org/2000/svg" xmlns:xlink="http://www.w3.org/1999/xlink" viewBox="0 0 800 1000" preserveAspectRatio="xMidYMid slice">
  <!-- Временная картинка: мокрое стекло после мойки. Замените фотографией работы. -->
  <defs><linearGradient id="night" x1="0" y1="0" x2="0" y2="1"><stop offset="0" stop-color="#360d0b"/><stop offset="0.6" stop-color="#180705"/><stop offset="1" stop-color="#060101"/></linearGradient>
    <radialGradient id="beadG" cx="0.5" cy="0.5" r="0.5" fx="0.64" fy="0.7"><stop offset="0" stop-color="#ffcfd1" stop-opacity="0.75"/><stop offset="0.4" stop-color="#e65d5e" stop-opacity="0.35"/><stop offset="0.82" stop-color="#1c0603" stop-opacity="0.6"/><stop offset="1" stop-color="#ffbdbc" stop-opacity="0.6"/></radialGradient>
    <radialGradient id="dimG" cx="0.5" cy="0.4" r="0.85"><stop offset="0.5" stop-color="#000" stop-opacity="0"/><stop offset="1" stop-color="#000" stop-opacity="0.7"/></radialGradient>
    <filter id="defocus"><feGaussianBlur stdDeviation="7"/></filter></defs>
  <rect width="800" height="1000" fill="url(#night)"/>
  <g filter="url(#defocus)"><circle cx="663.4" cy="436.9" r="91.4" fill="#ff8f8f" opacity="0.10"/><circle cx="361.7" cy="255.3" r="75.1" fill="#ffeaea" opacity="0.13"/><circle cx="420.1" cy="131.1" r="38.6" fill="#ff8f8f" opacity="0.13"/><circle cx="365.5" cy="698" r="72.1" fill="#ff4646" opacity="0.27"/><circle cx="42.2" cy="116" r="122" fill="#ffeaea" opacity="0.21"/><circle cx="162.7" cy="504.2" r="44.8" fill="#ffeaea" opacity="0.31"/><circle cx="664.1" cy="316" r="70.2" fill="#ffeaea" opacity="0.16"/><circle cx="137" cy="348.5" r="121.3" fill="#ff4646" opacity="0.29"/><circle cx="744.3" cy="470.7" r="65" fill="#ff4646" opacity="0.24"/><circle cx="646.7" cy="180.6" r="65.9" fill="#ffeaea" opacity="0.25"/><circle cx="69.4" cy="149.5" r="37.2" fill="#ff4646" opacity="0.26"/><circle cx="221.4" cy="202.4" r="42.5" fill="#ff8f8f" opacity="0.16"/><circle cx="181.9" cy="485.6" r="41" fill="#ffeaea" opacity="0.32"/><circle cx="712.5" cy="457.4" r="63.4" fill="#ff8f8f" opacity="0.16"/><circle cx="110.8" cy="592.4" r="68.1" fill="#ff8f8f" opacity="0.21"/><circle cx="74" cy="72.8" r="42.3" fill="#ff4646" opacity="0.13"/><circle cx="350.3" cy="58.3" r="94.3" fill="#ff4646" opacity="0.14"/><circle cx="204.6" cy="411.2" r="79" fill="#ffeaea" opacity="0.26"/><circle cx="204.2" cy="232.6" r="49.5" fill="#ffeaea" opacity="0.27"/><circle cx="725.1" cy="45.6" r="38.3" fill="#ffeaea" opacity="0.23"/><circle cx="739.5" cy="397.8" r="100.1" fill="#ff8f8f" opacity="0.14"/><circle cx="690.4" cy="239.9" r="41.8" fill="#ff8f8f" opacity="0.25"/><circle cx="521.1" cy="444.8" r="124" fill="#ff4646" opacity="0.24"/><circle cx="209.3" cy="230.8" r="67.4" fill="#ff4646" opacity="0.28"/><circle cx="316" cy="178.3" r="72.2" fill="#ff4646" opacity="0.31"/><circle cx="787.1" cy="245.5" r="37.5" fill="#ff4646" opacity="0.14"/><circle cx="370.1" cy="437.6" r="75.4" fill="#ff8f8f" opacity="0.30"/><circle cx="752.2" cy="145.9" r="80" fill="#ff8f8f" opacity="0.31"/><circle cx="722.1" cy="85.7" r="40.9" fill="#ff8f8f" opacity="0.07"/><circle cx="257.6" cy="55.9" r="74.4" fill="#ffeaea" opacity="0.10"/></g>
  <g fill="none" stroke="#ffdcdd" stroke-opacity="0.22" stroke-linecap="round" stroke-linejoin="round"><path d="M741 58.5L739.4 151.8L750.9 210.2L763.2 310.5L765.1 372.6L774.3 442.9L763.7 535.2L764 598.1L757.4 652.2L762.1 751.5L759.9 839.4" stroke-width="3.1"/><ellipse cx="759.9" cy="845.4" rx="8" ry="11" fill="url(#beadG)" stroke="none"/><path d="M687.5 272.2L694.1 326.6L688 396.6L690.3 478.8L687.4 549.4L692.4 602.7L703 690.4" stroke-width="4.7"/><ellipse cx="703" cy="696.4" rx="8" ry="11" fill="url(#beadG)" stroke="none"/><path d="M470.1 187.3L465.9 248.8L470.9 300.3L479.6 387.2L470.4 460.6L466.4 555.9L455.5 631.2L450.5 711.8L444.7 799.4L456.9 860.8L458 948.1L450.1 1030.3" stroke-width="3.5"/><ellipse cx="450.1" cy="1036.3" rx="8" ry="11" fill="url(#beadG)" stroke="none"/><path d="M115.7 240.4L116.3 325.7L127.1 379L115.5 437.1L114.3 491.3L120.7 591.1" stroke-width="6.9"/><ellipse cx="120.7" cy="597.1" rx="8" ry="11" fill="url(#beadG)" stroke="none"/><path d="M300.1 182.4L293.2 290.1L298.5 390.9L298 470.9L305.3 536.2" stroke-width="4.4"/><ellipse cx="305.3" cy="542.2" rx="8" ry="11" fill="url(#beadG)" stroke="none"/><path d="M652 264.6L642.1 370.8L629.5 473.8L638.2 577.4L632 650.8L626.9 718.1L617.8 776.1L624 870.3" stroke-width="6.2"/><ellipse cx="624" cy="876.3" rx="8" ry="11" fill="url(#beadG)" stroke="none"/><path d="M303.1 91.3L313.2 149.7L307.5 217.2L294.6 290.4L284 388L273 459.6L279.1 517.1L285.6 622.8L283.3 716.9L282.2 773.6L283.4 847.7" stroke-width="3"/><ellipse cx="283.4" cy="853.7" rx="8" ry="11" fill="url(#beadG)" stroke="none"/><path d="M184.1 116.2L177.6 209.2L166.1 275.1L178.5 380.1L181.4 482.2L188.6 568.7" stroke-width="5.7"/><ellipse cx="188.6" cy="574.7" rx="8" ry="11" fill="url(#beadG)" stroke="none"/><path d="M538.2 178.6L538.2 260.4L527.6 349.1L527.6 434.9L534 509.8L545.9 611.9L537.4 702.4" stroke-width="5"/><ellipse cx="537.4" cy="708.4" rx="8" ry="11" fill="url(#beadG)" stroke="none"/></g>
  <ellipse cx="529.6" cy="291.8" rx="8.9" ry="10.5" fill="url(#beadG)"/><circle cx="526.5" cy="288" r="1.9" fill="#fff" opacity="0.9"/><ellipse cx="642.5" cy="475" rx="2.8" ry="3.3" fill="url(#beadG)"/><circle cx="641.5" cy="473.7" r="0.6" fill="#fff" opacity="0.9"/><ellipse cx="768.9" cy="735" rx="5.2" ry="6.1" fill="url(#beadG)"/><circle cx="767.1" cy="732.7" r="1.1" fill="#fff" opacity="0.9"/><ellipse cx="554.6" cy="745" rx="2.8" ry="3.3" fill="url(#beadG)"/><circle cx="553.6" cy="743.8" r="0.6" fill="#fff" opacity="0.9"/><ellipse cx="143.6" cy="477.6" rx="14.6" ry="17.2" fill="url(#beadG)"/><circle cx="138.5" cy="471.2" r="3.2" fill="#fff" opacity="0.9"/><ellipse cx="280.7" cy="105.3" rx="6" ry="7.1" fill="url(#beadG)"/><circle cx="278.6" cy="102.6" r="1.3" fill="#fff" opacity="0.9"/><ellipse cx="78.9" cy="574.7" rx="9.3" ry="10.9" fill="url(#beadG)"/><circle cx="75.6" cy="570.7" r="2" fill="#fff" opacity="0.9"/><ellipse cx="420.2" cy="125.7" rx="3.8" ry="4.5" fill="url(#beadG)"/><circle cx="418.9" cy="124" r="0.8" fill="#fff" opacity="0.9"/><ellipse cx="740" cy="814" rx="3.3" ry="3.9" fill="url(#beadG)"/><circle cx="738.8" cy="812.6" r="0.7" fill="#fff" opacity="0.9"/><ellipse cx="408.5" cy="401.5" rx="7.5" ry="8.8" fill="url(#beadG)"/><circle cx="405.9" cy="398.2" r="1.6" fill="#fff" opacity="0.9"/><ellipse cx="402.5" cy="44" rx="14.3" ry="16.8" fill="url(#beadG)"/><circle cx="397.5" cy="37.7" r="3.1" fill="#fff" opacity="0.9"/><ellipse cx="28.2" cy="580.7" rx="4.2" ry="5" fill="url(#beadG)"/><circle cx="26.8" cy="578.9" r="0.9" fill="#fff" opacity="0.9"/><ellipse cx="404.2" cy="318.5" rx="11.8" ry="13.9" fill="url(#beadG)"/><circle cx="400.1" cy="313.4" r="2.6" fill="#fff" opacity="0.9"/><ellipse cx="724.9" cy="65.5" rx="7.7" ry="9.1" fill="url(#beadG)"/><circle cx="722.2" cy="62.1" r="1.7" fill="#fff" opacity="0.9"/><ellipse cx="119.8" cy="800.8" rx="18.5" ry="21.7" fill="url(#beadG)"/><circle cx="113.3" cy="792.8" r="4" fill="#fff" opacity="0.9"/><ellipse cx="273.6" cy="527.9" rx="5.5" ry="6.4" fill="url(#beadG)"/><circle cx="271.7" cy="525.5" r="1.2" fill="#fff" opacity="0.9"/><ellipse cx="316.9" cy="378.3" rx="7.1" ry="8.4" fill="url(#beadG)"/><circle cx="314.4" cy="375.2" r="1.6" fill="#fff" opacity="0.9"/><ellipse cx="22.1" cy="604.8" rx="3.6" ry="4.3" fill="url(#beadG)"/><circle cx="20.9" cy="603.2" r="0.8" fill="#fff" opacity="0.9"/><ellipse cx="606.1" cy="261.5" rx="14.1" ry="16.5" fill="url(#beadG)"/><circle cx="601.2" cy="255.4" r="3.1" fill="#fff" opacity="0.9"/><ellipse cx="621.2" cy="687.2" rx="10.6" ry="12.5" fill="url(#beadG)"/><circle cx="617.6" cy="682.6" r="2.3" fill="#fff" opacity="0.9"/><ellipse cx="664.9" cy="577.9" rx="3.4" ry="4" fill="url(#beadG)"/><circle cx="663.7" cy="576.5" r="0.7" fill="#fff" opacity="0.9"/><ellipse cx="415.5" cy="603.4" rx="6.4" ry="7.5" fill="url(#beadG)"/><circle cx="413.2" cy="600.6" r="1.4" fill="#fff" opacity="0.9"/><ellipse cx="595.4" cy="538.7" rx="4.5" ry="5.2" fill="url(#beadG)"/><circle cx="593.9" cy="536.8" r="1" fill="#fff" opacity="0.9"/><ellipse cx="619.2" cy="442.4" rx="5.9" ry="6.9" fill="url(#beadG)"/><circle cx="617.2" cy="439.8" r="1.3" fill="#fff" opacity="0.9"/><ellipse cx="764.6" cy="650.1" rx="6.3" ry="7.3" fill="url(#beadG)"/><circle cx="762.4" cy="647.3" r="1.4" fill="#fff" opacity="0.9"/><ellipse cx="491.4" cy="384.5" rx="3.2" ry="3.8" fill="url(#beadG)"/><circle cx="490.2" cy="383.1" r="0.7" fill="#fff" opacity="0.9"/><ellipse cx="781" cy="115.5" rx="5.9" ry="6.9" fill="url(#beadG)"/><circle cx="779" cy="113" r="1.3" fill="#fff" opacity="0.9"/><ellipse cx="617.5" cy="719.4" rx="3.7" ry="4.3" fill="url(#beadG)"/><circle cx="616.2" cy="717.9" r="0.8" fill="#fff" opacity="0.9"/><ellipse cx="476.7" cy="863.6" rx="7.1" ry="8.3" fill="url(#beadG)"/><circle cx="474.2" cy="860.5" r="1.5" fill="#fff" opacity="0.9"/><ellipse cx="505.8" cy="232" rx="2.8" ry="3.3" fill="url(#beadG)"/><circle cx="504.8" cy="230.8" r="0.6" fill="#fff" opacity="0.9"/><ellipse cx="582.5" cy="633.3" rx="4.8" ry="5.6" fill="url(#beadG)"/><circle cx="580.9" cy="631.2" r="1" fill="#fff" opacity="0.9"/><ellipse cx="782.7" cy="877.6" rx="4.4" ry="5.1" fill="url(#beadG)"/><circle cx="781.2" cy="875.7" r="0.9" fill="#fff" opacity="0.9"/><ellipse cx="678.5" cy="390.9" rx="14.1" ry="16.6" fill="url(#beadG)"/><circle cx="673.6" cy="384.8" r="3.1" fill="#fff" opacity="0.9"/><ellipse cx="73.6" cy="904.4" rx="5.6" ry="6.5" fill="url(#beadG)"/><circle cx="71.7" cy="902" r="1.2" fill="#fff" opacity="0.9"/><ellipse cx="781.1" cy="903.5" rx="4.3" ry="5" fill="url(#beadG)"/><circle cx="779.7" cy="901.6" r="0.9" fill="#fff" opacity="0.9"/><ellipse cx="334.2" cy="515.7" rx="12.8" ry="15" fill="url(#beadG)"/><circle cx="329.8" cy="510.1" r="2.8" fill="#fff" opacity="0.9"/><ellipse cx="539.7" cy="51.4" rx="5.7" ry="6.6" fill="url(#beadG)"/><circle cx="537.8" cy="48.9" r="1.2" fill="#fff" opacity="0.9"/><ellipse cx="172.9" cy="452.5" rx="4.1" ry="4.8" fill="url(#beadG)"/><circle cx="171.5" cy="450.7" r="0.9" fill="#fff" opacity="0.9"/><ellipse cx="375.5" cy="476.4" rx="5.8" ry="6.8" fill="url(#beadG)"/><circle cx="373.5" cy="473.9" r="1.3" fill="#fff" opacity="0.9"/><ellipse cx="713.9" cy="319" rx="10.4" ry="12.2" fill="url(#beadG)"/><circle cx="710.3" cy="314.5" r="2.3" fill="#fff" opacity="0.9"/><ellipse cx="448.7" cy="913.9" rx="5.5" ry="6.4" fill="url(#beadG)"/><circle cx="446.8" cy="911.5" r="1.2" fill="#fff" opacity="0.9"/><ellipse cx="693.2" cy="94.4" rx="3" ry="3.5" fill="url(#beadG)"/><circle cx="692.2" cy="93.1" r="0.6" fill="#fff" opacity="0.9"/><ellipse cx="428.6" cy="9.4" rx="14.2" ry="16.7" fill="url(#beadG)"/><circle cx="423.6" cy="3.2" r="3.1" fill="#fff" opacity="0.9"/><ellipse cx="660" cy="951.6" rx="5.1" ry="5.9" fill="url(#beadG)"/><circle cx="658.2" cy="949.4" r="1.1" fill="#fff" opacity="0.9"/><ellipse cx="603.5" cy="93.3" rx="4.3" ry="5.1" fill="url(#beadG)"/><circle cx="602" cy="91.4" r="0.9" fill="#fff" opacity="0.9"/><ellipse cx="74.6" cy="716.6" rx="3" ry="3.5" fill="url(#beadG)"/><circle cx="73.6" cy="715.3" r="0.6" fill="#fff" opacity="0.9"/><ellipse cx="64.1" cy="419.5" rx="7" ry="8.2" fill="url(#beadG)"/><circle cx="61.6" cy="416.5" r="1.5" fill="#fff" opacity="0.9"/><ellipse cx="770.2" cy="32.4" rx="4.1" ry="4.9" fill="url(#beadG)"/><circle cx="768.7" cy="30.6" r="0.9" fill="#fff" opacity="0.9"/><ellipse cx="494.4" cy="852.3" rx="3.9" ry="4.5" fill="url(#beadG)"/><circle cx="493" cy="850.6" r="0.8" fill="#fff" opacity="0.9"/><ellipse cx="745.7" cy="528.6" rx="9.9" ry="11.6" fill="url(#beadG)"/><circle cx="742.3" cy="524.2" r="2.2" fill="#fff" opacity="0.9"/><ellipse cx="549.6" cy="965.8" rx="9" ry="10.5" fill="url(#beadG)"/><circle cx="546.5" cy="961.9" r="1.9" fill="#fff" opacity="0.9"/><ellipse cx="111.2" cy="431.8" rx="9" ry="10.6" fill="url(#beadG)"/><circle cx="108.1" cy="427.9" r="2" fill="#fff" opacity="0.9"/><ellipse cx="135.2" cy="839.4" rx="5.8" ry="6.8" fill="url(#beadG)"/><circle cx="133.2" cy="836.9" r="1.3" fill="#fff" opacity="0.9"/><ellipse cx="557.2" cy="457.8" rx="4.7" ry="5.5" fill="url(#beadG)"/><circle cx="555.6" cy="455.7" r="1" fill="#fff" opacity="0.9"/><ellipse cx="769.1" cy="366.7" rx="5.5" ry="6.5" fill="url(#beadG)"/><circle cx="767.2" cy="364.3" r="1.2" fill="#fff" opacity="0.9"/><ellipse cx="64" cy="957.7" rx="10.6" ry="12.4" fill="url(#beadG)"/><circle cx="60.3" cy="953.1" r="2.3" fill="#fff" opacity="0.9"/><ellipse cx="416.2" cy="203.5" rx="4.8" ry="5.6" fill="url(#beadG)"/><circle cx="414.5" cy="201.4" r="1" fill="#fff" opacity="0.9"/><ellipse cx="202.3" cy="545.4" rx="16.1" ry="18.9" fill="url(#beadG)"/><circle cx="196.7" cy="538.4" r="3.5" fill="#fff" opacity="0.9"/><ellipse cx="110.7" cy="686.7" rx="6.5" ry="7.6" fill="url(#beadG)"/><circle cx="108.5" cy="683.9" r="1.4" fill="#fff" opacity="0.9"/><ellipse cx="783.5" cy="627.7" rx="16.5" ry="19.4" fill="url(#beadG)"/><circle cx="777.7" cy="620.6" r="3.6" fill="#fff" opacity="0.9"/><ellipse cx="667.1" cy="8.9" rx="4" ry="4.7" fill="url(#beadG)"/><circle cx="665.7" cy="7.2" r="0.9" fill="#fff" opacity="0.9"/><ellipse cx="127.3" cy="187.9" rx="3.9" ry="4.6" fill="url(#beadG)"/><circle cx="125.9" cy="186.2" r="0.8" fill="#fff" opacity="0.9"/><ellipse cx="196.9" cy="33.4" rx="10.7" ry="12.6" fill="url(#beadG)"/><circle cx="193.1" cy="28.7" r="2.3" fill="#fff" opacity="0.9"/><ellipse cx="354.6" cy="946" rx="7" ry="8.2" fill="url(#beadG)"/><circle cx="352.2" cy="942.9" r="1.5" fill="#fff" opacity="0.9"/><ellipse cx="425.4" cy="282.5" rx="8.2" ry="9.6" fill="url(#beadG)"/><circle cx="422.5" cy="278.9" r="1.8" fill="#fff" opacity="0.9"/><ellipse cx="493.6" cy="87.4" rx="4.4" ry="5.2" fill="url(#beadG)"/><circle cx="492.1" cy="85.4" r="1" fill="#fff" opacity="0.9"/><ellipse cx="41.8" cy="935.9" rx="5.3" ry="6.3" fill="url(#beadG)"/><circle cx="39.9" cy="933.6" r="1.2" fill="#fff" opacity="0.9"/><ellipse cx="277.8" cy="472.4" rx="7.6" ry="9" fill="url(#beadG)"/><circle cx="275.1" cy="469.1" r="1.7" fill="#fff" opacity="0.9"/><ellipse cx="486.1" cy="252.2" rx="4" ry="4.6" fill="url(#beadG)"/><circle cx="484.7" cy="250.5" r="0.9" fill="#fff" opacity="0.9"/><ellipse cx="326.6" cy="828.4" rx="7.8" ry="9.1" fill="url(#beadG)"/><circle cx="323.9" cy="825" r="1.7" fill="#fff" opacity="0.9"/><ellipse cx="109.3" cy="129.5" rx="3.7" ry="4.4" fill="url(#beadG)"/><circle cx="108" cy="127.9" r="0.8" fill="#fff" opacity="0.9"/><ellipse cx="620.4" cy="616.8" rx="8.3" ry="9.7" fill="url(#beadG)"/><circle cx="617.5" cy="613.2" r="1.8" fill="#fff" opacity="0.9"/><ellipse cx="345.9" cy="724.3" rx="4.2" ry="4.9" fill="url(#beadG)"/><circle cx="344.4" cy="722.5" r="0.9" fill="#fff" opacity="0.9"/><ellipse cx="227.2" cy="693.5" rx="4" ry="4.7" fill="url(#beadG)"/><circle cx="225.8" cy="691.8" r="0.9" fill="#fff" opacity="0.9"/><ellipse cx="13" cy="893.8" rx="8" ry="9.4" fill="url(#beadG)"/><circle cx="10.2" cy="890.3" r="1.7" fill="#fff" opacity="0.9"/><ellipse cx="130.6" cy="15.1" rx="3.6" ry="4.2" fill="url(#beadG)"/><circle cx="129.4" cy="13.6" r="0.8" fill="#fff" opacity="0.9"/><ellipse cx="57.7" cy="814.6" rx="3.1" ry="3.6" fill="url(#beadG)"/><circle cx="56.6" cy="813.2" r="0.7" fill="#fff" opacity="0.9"/><ellipse cx="304" cy="825.5" rx="9.1" ry="10.6" fill="url(#beadG)"/><circle cx="300.9" cy="821.5" r="2" fill="#fff" opacity="0.9"/><ellipse cx="743.1" cy="479.3" rx="2.9" ry="3.4" fill="url(#beadG)"/><circle cx="742.1" cy="478" r="0.6" fill="#fff" opacity="0.9"/><ellipse cx="679.1" cy="137.5" rx="6.7" ry="7.8" fill="url(#beadG)"/><circle cx="676.8" cy="134.6" r="1.5" fill="#fff" opacity="0.9"/><ellipse cx="352.1" cy="567.4" rx="2.8" ry="3.3" fill="url(#beadG)"/><circle cx="351.1" cy="566.2" r="0.6" fill="#fff" opacity="0.9"/><ellipse cx="118.4" cy="341.1" rx="4.7" ry="5.5" fill="url(#beadG)"/><circle cx="116.7" cy="339.1" r="1" fill="#fff" opacity="0.9"/><ellipse cx="351.2" cy="978.5" rx="11.8" ry="13.8" fill="url(#beadG)"/><circle cx="347.1" cy="973.4" r="2.6" fill="#fff" opacity="0.9"/><ellipse cx="716.5" cy="20" rx="14.3" ry="16.8" fill="url(#beadG)"/><circle cx="711.5" cy="13.8" r="3.1" fill="#fff" opacity="0.9"/><ellipse cx="166.2" cy="138" rx="4.5" ry="5.3" fill="url(#beadG)"/><circle cx="164.6" cy="136" r="1" fill="#fff" opacity="0.9"/><ellipse cx="291" cy="91.4" rx="4.9" ry="5.7" fill="url(#beadG)"/><circle cx="289.3" cy="89.3" r="1.1" fill="#fff" opacity="0.9"/><ellipse cx="675.3" cy="651.2" rx="12.3" ry="14.5" fill="url(#beadG)"/><circle cx="671" cy="645.9" r="2.7" fill="#fff" opacity="0.9"/><ellipse cx="527.8" cy="911.4" rx="3.9" ry="4.6" fill="url(#beadG)"/><circle cx="526.4" cy="909.7" r="0.8" fill="#fff" opacity="0.9"/><ellipse cx="572" cy="122.3" rx="7.5" ry="8.8" fill="url(#beadG)"/><circle cx="569.4" cy="119" r="1.6" fill="#fff" opacity="0.9"/><ellipse cx="75.4" cy="119.7" rx="5.3" ry="6.2" fill="url(#beadG)"/><circle cx="73.6" cy="117.4" r="1.2" fill="#fff" opacity="0.9"/><ellipse cx="681.4" cy="507.4" rx="10.8" ry="12.7" fill="url(#beadG)"/><circle cx="677.6" cy="502.7" r="2.3" fill="#fff" opacity="0.9"/><ellipse cx="762.8" cy="144.9" rx="14.7" ry="17.3" fill="url(#beadG)"/><circle cx="757.7" cy="138.5" r="3.2" fill="#fff" opacity="0.9"/><ellipse cx="663.9" cy="300.7" rx="3" ry="3.6" fill="url(#beadG)"/><circle cx="662.9" cy="299.4" r="0.7" fill="#fff" opacity="0.9"/><ellipse cx="91.9" cy="456.7" rx="14.9" ry="17.5" fill="url(#beadG)"/><circle cx="86.8" cy="450.2" r="3.2" fill="#fff" opacity="0.9"/><ellipse cx="326.3" cy="651.1" rx="8.2" ry="9.6" fill="url(#beadG)"/><circle cx="323.4" cy="647.6" r="1.8" fill="#fff" opacity="0.9"/><ellipse cx="750.9" cy="718.5" rx="9" ry="10.6" fill="url(#beadG)"/><circle cx="747.7" cy="714.6" r="2" fill="#fff" opacity="0.9"/><ellipse cx="233.2" cy="959.5" rx="14.7" ry="17.3" fill="url(#beadG)"/><circle cx="228.1" cy="953.1" r="3.2" fill="#fff" opacity="0.9"/><ellipse cx="545.4" cy="887.9" rx="7.5" ry="8.9" fill="url(#beadG)"/><circle cx="542.8" cy="884.6" r="1.6" fill="#fff" opacity="0.9"/><ellipse cx="324.7" cy="978.6" rx="3.2" ry="3.7" fill="url(#beadG)"/><circle cx="323.6" cy="977.2" r="0.7" fill="#fff" opacity="0.9"/><ellipse cx="376.5" cy="67.6" rx="15.5" ry="18.2" fill="url(#beadG)"/><circle cx="371.1" cy="60.9" r="3.4" fill="#fff" opacity="0.9"/><ellipse cx="564.5" cy="137.4" rx="5.7" ry="6.7" fill="url(#beadG)"/><circle cx="562.5" cy="134.9" r="1.2" fill="#fff" opacity="0.9"/><ellipse cx="740.4" cy="241" rx="8.1" ry="9.6" fill="url(#beadG)"/><circle cx="737.6" cy="237.4" r="1.8" fill="#fff" opacity="0.9"/><ellipse cx="722" cy="384.2" rx="12.7" ry="14.9" fill="url(#beadG)"/><circle cx="717.6" cy="378.7" r="2.8" fill="#fff" opacity="0.9"/><ellipse cx="68.9" cy="653.9" rx="13.2" ry="15.5" fill="url(#beadG)"/><circle cx="64.3" cy="648.1" r="2.9" fill="#fff" opacity="0.9"/><ellipse cx="359.8" cy="283.9" rx="3.1" ry="3.6" fill="url(#beadG)"/><circle cx="358.7" cy="282.5" r="0.7" fill="#fff" opacity="0.9"/><ellipse cx="784.5" cy="986.1" rx="2.8" ry="3.3" fill="url(#beadG)"/><circle cx="783.6" cy="984.9" r="0.6" fill="#fff" opacity="0.9"/><ellipse cx="677.7" cy="630.3" rx="3.8" ry="4.4" fill="url(#beadG)"/><circle cx="676.3" cy="628.6" r="0.8" fill="#fff" opacity="0.9"/><ellipse cx="190.7" cy="657.8" rx="2.8" ry="3.3" fill="url(#beadG)"/><circle cx="189.8" cy="656.6" r="0.6" fill="#fff" opacity="0.9"/><ellipse cx="783.3" cy="851.6" rx="8.1" ry="9.5" fill="url(#beadG)"/><circle cx="780.5" cy="848" r="1.8" fill="#fff" opacity="0.9"/><ellipse cx="82.6" cy="599.7" rx="6.8" ry="8" fill="url(#beadG)"/><circle cx="80.2" cy="596.8" r="1.5" fill="#fff" opacity="0.9"/><ellipse cx="429.7" cy="206.5" rx="4.4" ry="5.1" fill="url(#beadG)"/><circle cx="428.2" cy="204.6" r="0.9" fill="#fff" opacity="0.9"/><ellipse cx="540.7" cy="610.2" rx="3.6" ry="4.2" fill="url(#beadG)"/><circle cx="539.5" cy="608.6" r="0.8" fill="#fff" opacity="0.9"/><ellipse cx="252.2" cy="464.3" rx="3.8" ry="4.5" fill="url(#beadG)"/><circle cx="250.9" cy="462.7" r="0.8" fill="#fff" opacity="0.9"/><ellipse cx="417.7" cy="539" rx="6" ry="7" fill="url(#beadG)"/><circle cx="415.7" cy="536.4" r="1.3" fill="#fff" opacity="0.9"/><ellipse cx="555.4" cy="118.6" rx="2.8" ry="3.3" fill="url(#beadG)"/><circle cx="554.5" cy="117.4" r="0.6" fill="#fff" opacity="0.9"/><ellipse cx="708" cy="860.8" rx="5.7" ry="6.7" fill="url(#beadG)"/><circle cx="706.1" cy="858.3" r="1.2" fill="#fff" opacity="0.9"/><ellipse cx="583.3" cy="885.3" rx="3.8" ry="4.5" fill="url(#beadG)"/><circle cx="582" cy="883.6" r="0.8" fill="#fff" opacity="0.9"/><ellipse cx="550.8" cy="32.9" rx="4" ry="4.7" fill="url(#beadG)"/><circle cx="549.4" cy="31.1" r="0.9" fill="#fff" opacity="0.9"/><ellipse cx="324.1" cy="393.1" rx="3.8" ry="4.5" fill="url(#beadG)"/><circle cx="322.8" cy="391.5" r="0.8" fill="#fff" opacity="0.9"/><ellipse cx="584.8" cy="645.2" rx="3.2" ry="3.8" fill="url(#beadG)"/><circle cx="583.7" cy="643.8" r="0.7" fill="#fff" opacity="0.9"/><ellipse cx="311.3" cy="251.7" rx="3.2" ry="3.8" fill="url(#beadG)"/><circle cx="310.1" cy="250.3" r="0.7" fill="#fff" opacity="0.9"/><ellipse cx="307.9" cy="862.4" rx="10.5" ry="12.4" fill="url(#beadG)"/><circle cx="304.3" cy="857.9" r="2.3" fill="#fff" opacity="0.9"/><ellipse cx="680.2" cy="816.6" rx="8.4" ry="9.8" fill="url(#beadG)"/><circle cx="677.3" cy="813" r="1.8" fill="#fff" opacity="0.9"/><ellipse cx="438.9" cy="308.7" rx="13.3" ry="15.6" fill="url(#beadG)"/><circle cx="434.3" cy="303" r="2.9" fill="#fff" opacity="0.9"/><ellipse cx="487.9" cy="965.6" rx="6.6" ry="7.8" fill="url(#beadG)"/><circle cx="485.6" cy="962.7" r="1.4" fill="#fff" opacity="0.9"/><ellipse cx="157.1" cy="546.4" rx="10.4" ry="12.2" fill="url(#beadG)"/><circle cx="153.4" cy="541.9" r="2.3" fill="#fff" opacity="0.9"/><ellipse cx="451.8" cy="942.4" rx="8" ry="9.4" fill="url(#beadG)"/><circle cx="449" cy="938.9" r="1.7" fill="#fff" opacity="0.9"/><ellipse cx="528.6" cy="651.9" rx="13" ry="15.2" fill="url(#beadG)"/><circle cx="524.1" cy="646.3" r="2.8" fill="#fff" opacity="0.9"/><ellipse cx="113" cy="61.1" rx="5.5" ry="6.5" fill="url(#beadG)"/><circle cx="111.1" cy="58.7" r="1.2" fill="#fff" opacity="0.9"/><ellipse cx="440.3" cy="624.1" rx="6.7" ry="7.9" fill="url(#beadG)"/><circle cx="438" cy="621.2" r="1.5" fill="#fff" opacity="0.9"/><ellipse cx="246.8" cy="662.3" rx="3.8" ry="4.5" fill="url(#beadG)"/><circle cx="245.4" cy="660.7" r="0.8" fill="#fff" opacity="0.9"/><ellipse cx="195.4" cy="879.7" rx="5.4" ry="6.4" fill="url(#beadG)"/><circle cx="193.6" cy="877.4" r="1.2" fill="#fff" opacity="0.9"/><ellipse cx="310.6" cy="633.7" rx="5.7" ry="6.7" fill="url(#beadG)"/><circle cx="308.6" cy="631.2" r="1.2" fill="#fff" opacity="0.9"/><ellipse cx="219.2" cy="381.8" rx="7.8" ry="9.2" fill="url(#beadG)"/><circle cx="216.4" cy="378.4" r="1.7" fill="#fff" opacity="0.9"/><ellipse cx="83.6" cy="355.2" rx="9.8" ry="11.6" fill="url(#beadG)"/><circle cx="80.2" cy="351" r="2.1" fill="#fff" opacity="0.9"/><ellipse cx="792" cy="934" rx="3.4" ry="3.9" fill="url(#beadG)"/><circle cx="790.9" cy="932.5" r="0.7" fill="#fff" opacity="0.9"/><ellipse cx="693.1" cy="600.5" rx="8.1" ry="9.5" fill="url(#beadG)"/><circle cx="690.3" cy="597" r="1.8" fill="#fff" opacity="0.9"/><ellipse cx="131.5" cy="515.1" rx="5.9" ry="6.9" fill="url(#beadG)"/><circle cx="129.4" cy="512.5" r="1.3" fill="#fff" opacity="0.9"/><ellipse cx="735.3" cy="418.9" rx="14" ry="16.4" fill="url(#beadG)"/><circle cx="730.5" cy="412.9" r="3" fill="#fff" opacity="0.9"/><ellipse cx="406.8" cy="883.5" rx="17.7" ry="20.8" fill="url(#beadG)"/><circle cx="400.6" cy="875.8" r="3.8" fill="#fff" opacity="0.9"/><ellipse cx="535.9" cy="781.3" rx="3.5" ry="4.1" fill="url(#beadG)"/><circle cx="534.7" cy="779.8" r="0.8" fill="#fff" opacity="0.9"/><ellipse cx="269.2" cy="553.2" rx="11.8" ry="13.8" fill="url(#beadG)"/><circle cx="265.1" cy="548.1" r="2.6" fill="#fff" opacity="0.9"/><ellipse cx="438.6" cy="457.1" rx="5.9" ry="6.9" fill="url(#beadG)"/><circle cx="436.5" cy="454.6" r="1.3" fill="#fff" opacity="0.9"/><ellipse cx="307.4" cy="576.9" rx="11.1" ry="13" fill="url(#beadG)"/><circle cx="303.6" cy="572.1" r="2.4" fill="#fff" opacity="0.9"/><ellipse cx="492.9" cy="831.5" rx="4.2" ry="4.9" fill="url(#beadG)"/><circle cx="491.4" cy="829.7" r="0.9" fill="#fff" opacity="0.9"/><ellipse cx="195.3" cy="134.8" rx="6.9" ry="8.1" fill="url(#beadG)"/><circle cx="192.9" cy="131.8" r="1.5" fill="#fff" opacity="0.9"/><ellipse cx="683.5" cy="983.2" rx="3.8" ry="4.4" fill="url(#beadG)"/><circle cx="682.2" cy="981.6" r="0.8" fill="#fff" opacity="0.9"/><ellipse cx="130.8" cy="399.7" rx="11.7" ry="13.7" fill="url(#beadG)"/><circle cx="126.7" cy="394.6" r="2.5" fill="#fff" opacity="0.9"/><ellipse cx="384.8" cy="399.5" rx="8.2" ry="9.6" fill="url(#beadG)"/><circle cx="382" cy="395.9" r="1.8" fill="#fff" opacity="0.9"/><ellipse cx="468.8" cy="722.1" rx="14.5" ry="17" fill="url(#beadG)"/><circle cx="463.8" cy="715.8" r="3.2" fill="#fff" opacity="0.9"/>
  <rect width="800" height="1000" fill="url(#dimG)"/>
</svg>
