<svg xmlns="http://www.w3.org/2000/svg" xmlns:xlink="http://www.w3.org/1999/xlink" viewBox="0 0 800 1000" preserveAspectRatio="xMidYMid slice">
  <!-- Временная картинка: чистое колесо после мойки. Замените фотографией работы. -->
  <defs><radialGradient id="tyre" cx="400" cy="500" r="470" gradientUnits="userSpaceOnUse"><stop offset="0.64" stop-color="#05050a"/><stop offset="0.7" stop-color="#151522"/><stop offset="0.8" stop-color="#0a0a12"/><stop offset="0.93" stop-color="#1b1b2b"/><stop offset="1" stop-color="#06060b"/></radialGradient>
    <radialGradient id="barrel" cx="400" cy="500" r="305" gradientUnits="userSpaceOnUse"><stop offset="0.7" stop-color="#04040a"/><stop offset="0.93" stop-color="#1b1a30"/><stop offset="1" stop-color="#8f8ec2"/></radialGradient>
    <radialGradient id="disc" cx="400" cy="500" r="232" gradientUnits="userSpaceOnUse"><stop offset="0.3" stop-color="#3c3a52"/><stop offset="0.55" stop-color="#8887a8"/><stop offset="0.75" stop-color="#5c5b7a"/><stop offset="1" stop-color="#a4a3c2"/></radialGradient>
    <radialGradient id="spoke" cx="400" cy="500" r="300" gradientUnits="userSpaceOnUse"><stop offset="0.15" stop-color="#C3CDDD"/><stop offset="0.6" stop-color="#77839A"/><stop offset="1" stop-color="#AAB6CA"/></radialGradient>
    <radialGradient id="hub" cx="0.38" cy="0.32" r="0.8"><stop offset="0" stop-color="#DBE3F1"/><stop offset="0.5" stop-color="#595877"/><stop offset="1" stop-color="#151422"/></radialGradient>
    <linearGradient id="caliper" x1="0" y1="0" x2="1" y2="1"><stop offset="0" stop-color="#4d4cf5"/><stop offset="1" stop-color="#1d148a"/></linearGradient>
    <radialGradient id="beadW" cx="0.5" cy="0.5" r="0.5" fx="0.66" fy="0.7"><stop offset="0" stop-color="#cfd1ff" stop-opacity="0.6"/><stop offset="0.8" stop-color="#06050e" stop-opacity="0.5"/><stop offset="1" stop-color="#9c9cff" stop-opacity="0.45"/></radialGradient>
    <radialGradient id="spot" cx="0.28" cy="0.2" r="0.9"><stop offset="0" stop-color="#4646ff" stop-opacity="0.32"/><stop offset="0.5" stop-color="#4646ff" stop-opacity="0.05"/><stop offset="1" stop-color="#000" stop-opacity="0.72"/></radialGradient>
    <clipPath id="inside"><circle cx="400" cy="500" r="296"/></clipPath></defs>
  <rect width="800" height="1000" fill="#030308"/>
  <circle cx="400" cy="500" r="470" fill="url(#tyre)"/>
  <circle cx="400" cy="500" r="398" fill="none" stroke="#2c2b43" stroke-width="2"/>
  <circle cx="400" cy="500" r="352" fill="none" stroke="#2c2b43" stroke-width="1.5"/>
  <circle cx="369.1" cy="921.8" r="4.6" fill="url(#beadW)"/><circle cx="367.4" cy="919.9" r="1" fill="#fff" opacity="0.85"/><circle cx="245" cy="200.8" r="8.3" fill="url(#beadW)"/><circle cx="242.1" cy="197.5" r="1.8" fill="#fff" opacity="0.85"/><circle cx="745" cy="258.6" r="8.4" fill="url(#beadW)"/><circle cx="742" cy="255.2" r="1.9" fill="#fff" opacity="0.85"/><circle cx="810.9" cy="416.2" r="7.5" fill="url(#beadW)"/><circle cx="808.3" cy="413.2" r="1.6" fill="#fff" opacity="0.85"/><circle cx="475" cy="857.1" r="7.6" fill="url(#beadW)"/><circle cx="472.4" cy="854.1" r="1.7" fill="#fff" opacity="0.85"/><circle cx="612.8" cy="129.9" r="4.2" fill="url(#beadW)"/><circle cx="611.3" cy="128.2" r="0.9" fill="#fff" opacity="0.85"/><circle cx="757.5" cy="510.2" r="8.1" fill="url(#beadW)"/><circle cx="754.6" cy="506.9" r="1.8" fill="#fff" opacity="0.85"/><circle cx="644.5" cy="852.1" r="3.5" fill="url(#beadW)"/><circle cx="643.2" cy="850.7" r="0.8" fill="#fff" opacity="0.85"/><circle cx="663.7" cy="864.1" r="8.4" fill="url(#beadW)"/><circle cx="660.8" cy="860.7" r="1.8" fill="#fff" opacity="0.85"/><circle cx="35.7" cy="412.7" r="3.6" fill="url(#beadW)"/><circle cx="34.4" cy="411.2" r="0.8" fill="#fff" opacity="0.85"/><circle cx="-18.6" cy="557.4" r="7.5" fill="url(#beadW)"/><circle cx="-21.2" cy="554.4" r="1.6" fill="#fff" opacity="0.85"/><circle cx="834.8" cy="395.8" r="3.5" fill="url(#beadW)"/><circle cx="833.5" cy="394.4" r="0.8" fill="#fff" opacity="0.85"/><circle cx="673.3" cy="165.3" r="7.5" fill="url(#beadW)"/><circle cx="670.7" cy="162.2" r="1.7" fill="#fff" opacity="0.85"/><circle cx="838.4" cy="461.8" r="5.8" fill="url(#beadW)"/><circle cx="836.4" cy="459.4" r="1.3" fill="#fff" opacity="0.85"/><circle cx="-26" cy="483.4" r="2.6" fill="url(#beadW)"/><circle cx="-26.9" cy="482.3" r="0.6" fill="#fff" opacity="0.85"/><circle cx="68.5" cy="378" r="8.4" fill="url(#beadW)"/><circle cx="65.5" cy="374.7" r="1.8" fill="#fff" opacity="0.85"/><circle cx="757.4" cy="453.4" r="8.4" fill="url(#beadW)"/><circle cx="754.5" cy="450.1" r="1.8" fill="#fff" opacity="0.85"/><circle cx="790.6" cy="312.9" r="6.9" fill="url(#beadW)"/><circle cx="788.1" cy="310.1" r="1.5" fill="#fff" opacity="0.85"/><circle cx="53.8" cy="244.4" r="4.5" fill="url(#beadW)"/><circle cx="52.3" cy="242.6" r="1" fill="#fff" opacity="0.85"/><circle cx="826.6" cy="364.8" r="4.2" fill="url(#beadW)"/><circle cx="825.1" cy="363.1" r="0.9" fill="#fff" opacity="0.85"/><circle cx="511.9" cy="147.9" r="3.1" fill="url(#beadW)"/><circle cx="510.8" cy="146.7" r="0.7" fill="#fff" opacity="0.85"/><circle cx="403" cy="159.6" r="3" fill="url(#beadW)"/><circle cx="402" cy="158.4" r="0.7" fill="#fff" opacity="0.85"/><circle cx="250.6" cy="155.7" r="6.4" fill="url(#beadW)"/><circle cx="248.3" cy="153.1" r="1.4" fill="#fff" opacity="0.85"/><circle cx="808.8" cy="503.3" r="7.4" fill="url(#beadW)"/><circle cx="806.2" cy="500.3" r="1.6" fill="#fff" opacity="0.85"/><circle cx="581.1" cy="838.6" r="3.4" fill="url(#beadW)"/><circle cx="579.9" cy="837.3" r="0.7" fill="#fff" opacity="0.85"/><circle cx="723.3" cy="674.7" r="8" fill="url(#beadW)"/><circle cx="720.5" cy="671.5" r="1.8" fill="#fff" opacity="0.85"/><circle cx="569.3" cy="875.6" r="2.6" fill="url(#beadW)"/><circle cx="568.4" cy="874.6" r="0.6" fill="#fff" opacity="0.85"/><circle cx="-4.4" cy="642" r="6.6" fill="url(#beadW)"/><circle cx="-6.7" cy="639.3" r="1.4" fill="#fff" opacity="0.85"/><circle cx="75.7" cy="378.1" r="7.3" fill="url(#beadW)"/><circle cx="73.2" cy="375.2" r="1.6" fill="#fff" opacity="0.85"/><circle cx="665.6" cy="848.2" r="6.7" fill="url(#beadW)"/><circle cx="663.3" cy="845.5" r="1.5" fill="#fff" opacity="0.85"/><circle cx="296.4" cy="926.5" r="2.8" fill="url(#beadW)"/><circle cx="295.4" cy="925.3" r="0.6" fill="#fff" opacity="0.85"/><circle cx="116.1" cy="842.6" r="7.4" fill="url(#beadW)"/><circle cx="113.6" cy="839.7" r="1.6" fill="#fff" opacity="0.85"/><circle cx="753.9" cy="435.1" r="7.5" fill="url(#beadW)"/><circle cx="751.3" cy="432.1" r="1.7" fill="#fff" opacity="0.85"/><circle cx="70.7" cy="547.7" r="7" fill="url(#beadW)"/><circle cx="68.2" cy="544.9" r="1.5" fill="#fff" opacity="0.85"/><circle cx="180.9" cy="137.7" r="7.4" fill="url(#beadW)"/><circle cx="178.3" cy="134.8" r="1.6" fill="#fff" opacity="0.85"/><circle cx="30.6" cy="369.9" r="6.6" fill="url(#beadW)"/><circle cx="28.3" cy="367.2" r="1.5" fill="#fff" opacity="0.85"/><circle cx="9.4" cy="653.3" r="8.1" fill="url(#beadW)"/><circle cx="6.6" cy="650.1" r="1.8" fill="#fff" opacity="0.85"/><circle cx="766.9" cy="538.6" r="7" fill="url(#beadW)"/><circle cx="764.5" cy="535.8" r="1.5" fill="#fff" opacity="0.85"/><circle cx="803.8" cy="613.7" r="8" fill="url(#beadW)"/><circle cx="801" cy="610.5" r="1.8" fill="#fff" opacity="0.85"/><circle cx="747" cy="428.8" r="4.4" fill="url(#beadW)"/><circle cx="745.5" cy="427" r="1" fill="#fff" opacity="0.85"/><circle cx="234.6" cy="910.8" r="3.3" fill="url(#beadW)"/><circle cx="233.4" cy="909.5" r="0.7" fill="#fff" opacity="0.85"/><circle cx="693" cy="652.3" r="3.3" fill="url(#beadW)"/><circle cx="691.8" cy="651" r="0.7" fill="#fff" opacity="0.85"/><circle cx="652.4" cy="770.2" r="4.5" fill="url(#beadW)"/><circle cx="650.9" cy="768.4" r="1" fill="#fff" opacity="0.85"/><circle cx="84.7" cy="193.1" r="7.2" fill="url(#beadW)"/><circle cx="82.1" cy="190.2" r="1.6" fill="#fff" opacity="0.85"/><circle cx="527.1" cy="175.4" r="2.6" fill="url(#beadW)"/><circle cx="526.1" cy="174.4" r="0.6" fill="#fff" opacity="0.85"/><circle cx="93.2" cy="657.9" r="4.8" fill="url(#beadW)"/><circle cx="91.5" cy="656" r="1" fill="#fff" opacity="0.85"/><circle cx="-4.5" cy="534.1" r="3.5" fill="url(#beadW)"/><circle cx="-5.7" cy="532.7" r="0.8" fill="#fff" opacity="0.85"/><circle cx="659" cy="730.1" r="5.1" fill="url(#beadW)"/><circle cx="657.2" cy="728.1" r="1.1" fill="#fff" opacity="0.85"/><circle cx="66.9" cy="696.7" r="5.4" fill="url(#beadW)"/><circle cx="65" cy="694.6" r="1.2" fill="#fff" opacity="0.85"/><circle cx="764.6" cy="509.7" r="8.3" fill="url(#beadW)"/><circle cx="761.7" cy="506.3" r="1.8" fill="#fff" opacity="0.85"/><circle cx="126.5" cy="801" r="3.8" fill="url(#beadW)"/><circle cx="125.2" cy="799.5" r="0.8" fill="#fff" opacity="0.85"/><circle cx="703.5" cy="712.2" r="2.5" fill="url(#beadW)"/><circle cx="702.6" cy="711.2" r="0.6" fill="#fff" opacity="0.85"/><circle cx="295.4" cy="70.6" r="7.1" fill="url(#beadW)"/><circle cx="292.9" cy="67.8" r="1.6" fill="#fff" opacity="0.85"/><circle cx="157.6" cy="207.5" r="6.4" fill="url(#beadW)"/><circle cx="155.4" cy="204.9" r="1.4" fill="#fff" opacity="0.85"/><circle cx="113.2" cy="157.9" r="6.5" fill="url(#beadW)"/><circle cx="110.9" cy="155.3" r="1.4" fill="#fff" opacity="0.85"/><circle cx="321.3" cy="148.5" r="5.6" fill="url(#beadW)"/><circle cx="319.4" cy="146.2" r="1.2" fill="#fff" opacity="0.85"/><circle cx="549" cy="881.7" r="3" fill="url(#beadW)"/><circle cx="548" cy="880.5" r="0.7" fill="#fff" opacity="0.85"/><circle cx="474.4" cy="883.7" r="8.1" fill="url(#beadW)"/><circle cx="471.6" cy="880.5" r="1.8" fill="#fff" opacity="0.85"/><circle cx="44.7" cy="590.3" r="5.5" fill="url(#beadW)"/><circle cx="42.8" cy="588.1" r="1.2" fill="#fff" opacity="0.85"/><circle cx="673.1" cy="704.4" r="2.7" fill="url(#beadW)"/><circle cx="672.1" cy="703.3" r="0.6" fill="#fff" opacity="0.85"/><circle cx="670.8" cy="843.5" r="3.5" fill="url(#beadW)"/><circle cx="669.6" cy="842.1" r="0.8" fill="#fff" opacity="0.85"/><circle cx="93.4" cy="779.7" r="4.7" fill="url(#beadW)"/><circle cx="91.7" cy="777.8" r="1" fill="#fff" opacity="0.85"/><circle cx="777.4" cy="494.9" r="7.1" fill="url(#beadW)"/><circle cx="774.9" cy="492.1" r="1.6" fill="#fff" opacity="0.85"/><circle cx="581.9" cy="156.6" r="5.4" fill="url(#beadW)"/><circle cx="580" cy="154.4" r="1.2" fill="#fff" opacity="0.85"/><circle cx="170.7" cy="852.7" r="8.3" fill="url(#beadW)"/><circle cx="167.8" cy="849.4" r="1.8" fill="#fff" opacity="0.85"/><circle cx="737.6" cy="442.3" r="8.2" fill="url(#beadW)"/><circle cx="734.7" cy="439.1" r="1.8" fill="#fff" opacity="0.85"/><circle cx="80.6" cy="329.9" r="3.8" fill="url(#beadW)"/><circle cx="79.3" cy="328.3" r="0.8" fill="#fff" opacity="0.85"/><circle cx="141.1" cy="719.3" r="8.4" fill="url(#beadW)"/><circle cx="138.2" cy="715.9" r="1.8" fill="#fff" opacity="0.85"/><circle cx="224.9" cy="906.2" r="5.7" fill="url(#beadW)"/><circle cx="222.9" cy="903.9" r="1.2" fill="#fff" opacity="0.85"/><circle cx="46.9" cy="344.3" r="7.9" fill="url(#beadW)"/><circle cx="44.2" cy="341.2" r="1.7" fill="#fff" opacity="0.85"/>
  <circle cx="400" cy="500" r="305" fill="url(#barrel)"/>
  <g clip-path="url(#inside)">
    <circle cx="400" cy="500" r="232" fill="url(#disc)"/>
    <g fill="#151422"><circle cx="604.7" cy="510.7" r="5.2"/><circle cx="546.2" cy="533.7" r="5.2"/><circle cx="588.7" cy="580.1" r="5.2"/><circle cx="525.8" cy="581.7" r="5.2"/><circle cx="549.9" cy="639.8" r="5.2"/><circle cx="490.3" cy="619.8" r="5.2"/><circle cx="493.1" cy="682.7" r="5.2"/><circle cx="443.9" cy="643.4" r="5.2"/><circle cx="425" cy="703.5" r="5.2"/><circle cx="392.1" cy="649.8" r="5.2"/><circle cx="353.9" cy="699.7" r="5.2"/><circle cx="341.4" cy="638.1" r="5.2"/><circle cx="288.3" cy="671.9" r="5.2"/><circle cx="297.7" cy="609.7" r="5.2"/><circle cx="236.3" cy="623.4" r="5.2"/><circle cx="266.3" cy="568.1" r="5.2"/><circle cx="204" cy="559.9" r="5.2"/><circle cx="251.1" cy="518.3" r="5.2"/><circle cx="195.3" cy="489.3" r="5.2"/><circle cx="253.8" cy="466.3" r="5.2"/><circle cx="211.3" cy="419.9" r="5.2"/><circle cx="274.2" cy="418.3" r="5.2"/><circle cx="250.1" cy="360.2" r="5.2"/><circle cx="309.7" cy="380.2" r="5.2"/><circle cx="306.9" cy="317.3" r="5.2"/><circle cx="356.1" cy="356.6" r="5.2"/><circle cx="375" cy="296.5" r="5.2"/><circle cx="407.9" cy="350.2" r="5.2"/><circle cx="446.1" cy="300.3" r="5.2"/><circle cx="458.6" cy="361.9" r="5.2"/><circle cx="511.7" cy="328.1" r="5.2"/><circle cx="502.3" cy="390.3" r="5.2"/><circle cx="563.7" cy="376.6" r="5.2"/><circle cx="533.7" cy="431.9" r="5.2"/><circle cx="596" cy="440.1" r="5.2"/><circle cx="548.9" cy="481.7" r="5.2"/></g>
    <circle cx="400" cy="500" r="232" fill="none" stroke="#1d1b30" stroke-width="3"/>
    <path d="M178.9 396.9A244 244 0 0 1 316.5 270.7L333.3 350.2A164 164 0 0 0 256.6 420.5Z" fill="url(#caliper)" stroke="#9c9cff" stroke-opacity="0.55" stroke-width="2" stroke-linejoin="round"/>
    <path d="M422 460L413 206L387 206L378 460Z" fill="url(#spoke)"/><path d="M422 460L413 206" stroke="#f4f4ff" stroke-opacity="0.8" stroke-width="2" fill="none"/><path d="M378 460L387 206" stroke="#05050b" stroke-opacity="0.7" stroke-width="2" fill="none"/><path d="M445 492.3L638 326.9L621.8 306.5L417.6 457.9Z" fill="url(#spoke)"/><path d="M445 492.3L638 326.9" stroke="#f4f4ff" stroke-opacity="0.8" stroke-width="2" fill="none"/><path d="M417.6 457.9L621.8 306.5" stroke="#05050b" stroke-opacity="0.7" stroke-width="2" fill="none"/><path d="M434.1 530.3L683.7 578.1L689.5 552.7L443.9 487.5Z" fill="url(#spoke)"/><path d="M434.1 530.3L683.7 578.1" stroke="#f4f4ff" stroke-opacity="0.8" stroke-width="2" fill="none"/><path d="M443.9 487.5L689.5 552.7" stroke="#05050b" stroke-opacity="0.7" stroke-width="2" fill="none"/><path d="M397.5 545.6L515.8 770.5L539.3 759.2L437.2 526.5Z" fill="url(#spoke)"/><path d="M397.5 545.6L515.8 770.5" stroke="#f4f4ff" stroke-opacity="0.8" stroke-width="2" fill="none"/><path d="M437.2 526.5L539.3 759.2" stroke="#05050b" stroke-opacity="0.7" stroke-width="2" fill="none"/><path d="M362.8 526.5L260.7 759.2L284.2 770.5L402.5 545.6Z" fill="url(#spoke)"/><path d="M362.8 526.5L260.7 759.2" stroke="#f4f4ff" stroke-opacity="0.8" stroke-width="2" fill="none"/><path d="M402.5 545.6L284.2 770.5" stroke="#05050b" stroke-opacity="0.7" stroke-width="2" fill="none"/><path d="M356.1 487.5L110.5 552.7L116.3 578.1L365.9 530.3Z" fill="url(#spoke)"/><path d="M356.1 487.5L110.5 552.7" stroke="#f4f4ff" stroke-opacity="0.8" stroke-width="2" fill="none"/><path d="M365.9 530.3L116.3 578.1" stroke="#05050b" stroke-opacity="0.7" stroke-width="2" fill="none"/><path d="M382.4 457.9L178.2 306.5L162 326.9L355 492.3Z" fill="url(#spoke)"/><path d="M382.4 457.9L178.2 306.5" stroke="#f4f4ff" stroke-opacity="0.8" stroke-width="2" fill="none"/><path d="M355 492.3L162 326.9" stroke="#05050b" stroke-opacity="0.7" stroke-width="2" fill="none"/>
  </g>
  <circle cx="400" cy="500" r="298" fill="none" stroke="#B9C5D9" stroke-opacity="0.55" stroke-width="9"/>
  <circle cx="400" cy="500" r="66" fill="url(#hub)"/>
  <circle cx="423.5" cy="467.6" r="8.5" fill="#0b0b16" stroke="#8e8ec6" stroke-opacity="0.7" stroke-width="1.5"/><circle cx="438" cy="512.4" r="8.5" fill="#0b0b16" stroke="#8e8ec6" stroke-opacity="0.7" stroke-width="1.5"/><circle cx="400" cy="540" r="8.5" fill="#0b0b16" stroke="#8e8ec6" stroke-opacity="0.7" stroke-width="1.5"/><circle cx="362" cy="512.4" r="8.5" fill="#0b0b16" stroke="#8e8ec6" stroke-opacity="0.7" stroke-width="1.5"/><circle cx="376.5" cy="467.6" r="8.5" fill="#0b0b16" stroke="#8e8ec6" stroke-opacity="0.7" stroke-width="1.5"/>
  <circle cx="400" cy="500" r="22" fill="#0a0a15" stroke="#a09fd3" stroke-opacity="0.8" stroke-width="2"/>
  <circle cx="400" cy="500" r="301" fill="none" stroke="#e9e8ff" stroke-opacity="0.85" stroke-width="3.5" stroke-dasharray="520 1400" transform="rotate(-150 400 500)"/>
  <rect width="800" height="1000" fill="url(#spot)"/>
</svg>
