<svg xmlns="http://www.w3.org/2000/svg" xmlns:xlink="http://www.w3.org/1999/xlink" viewBox="0 0 800 1000" preserveAspectRatio="xMidYMid slice">
  <!-- Временная картинка: чистое колесо после мойки. Замените фотографией работы. -->
  <defs><radialGradient id="tyre" cx="400" cy="500" r="470" gradientUnits="userSpaceOnUse"><stop offset="0.64" stop-color="#080808"/><stop offset="0.7" stop-color="#1c1c1c"/><stop offset="0.8" stop-color="#0e0e0e"/><stop offset="0.93" stop-color="#232323"/><stop offset="1" stop-color="#090909"/></radialGradient>
    <radialGradient id="barrel" cx="400" cy="500" r="305" gradientUnits="userSpaceOnUse"><stop offset="0.7" stop-color="#070707"/><stop offset="0.93" stop-color="#252525"/><stop offset="1" stop-color="#a8a8a8"/></radialGradient>
    <radialGradient id="disc" cx="400" cy="500" r="232" gradientUnits="userSpaceOnUse"><stop offset="0.3" stop-color="#464646"/><stop offset="0.55" stop-color="#989898"/><stop offset="0.75" stop-color="#6b6b6b"/><stop offset="1" stop-color="#b3b3b3"/></radialGradient>
    <radialGradient id="spoke" cx="400" cy="500" r="300" gradientUnits="userSpaceOnUse"><stop offset="0.15" stop-color="#C3CDDD"/><stop offset="0.6" stop-color="#77839A"/><stop offset="1" stop-color="#AAB6CA"/></radialGradient>
    <radialGradient id="hub" cx="0.38" cy="0.32" r="0.8"><stop offset="0" stop-color="#DBE3F1"/><stop offset="0.5" stop-color="#686868"/><stop offset="1" stop-color="#1b1b1b"/></radialGradient>
    <linearGradient id="caliper" x1="0" y1="0" x2="1" y2="1"><stop offset="0" stop-color="#a1a1a1"/><stop offset="1" stop-color="#4f4f4f"/></linearGradient>
    <radialGradient id="beadW" cx="0.5" cy="0.5" r="0.5" fx="0.66" fy="0.7"><stop offset="0" stop-color="#e7e7e7" stop-opacity="0.6"/><stop offset="0.8" stop-color="#0a0a0a" stop-opacity="0.5"/><stop offset="1" stop-color="#cecece" stop-opacity="0.45"/></radialGradient>
    <radialGradient id="spot" cx="0.28" cy="0.2" r="0.9"><stop offset="0" stop-color="#a3a3a3" stop-opacity="0.32"/><stop offset="0.5" stop-color="#a3a3a3" stop-opacity="0.05"/><stop offset="1" stop-color="#000" stop-opacity="0.72"/></radialGradient>
    <clipPath id="inside"><circle cx="400" cy="500" r="296"/></clipPath></defs>
  <rect width="800" height="1000" fill="#060606"/>
  <circle cx="400" cy="500" r="470" fill="url(#tyre)"/>
  <circle cx="400" cy="500" r="398" fill="none" stroke="#373737" stroke-width="2"/>
  <circle cx="400" cy="500" r="352" fill="none" stroke="#373737" stroke-width="1.5"/>
  <circle cx="379.6" cy="914.2" r="5.9" fill="url(#beadW)"/><circle cx="377.5" cy="911.9" r="1.3" fill="#fff" opacity="0.85"/><circle cx="213.4" cy="145.8" r="4.7" fill="url(#beadW)"/><circle cx="211.7" cy="143.9" r="1" fill="#fff" opacity="0.85"/><circle cx="182.8" cy="780.9" r="3.3" fill="url(#beadW)"/><circle cx="181.7" cy="779.6" r="0.7" fill="#fff" opacity="0.85"/><circle cx="-38.8" cy="481.7" r="7.5" fill="url(#beadW)"/><circle cx="-41.4" cy="478.7" r="1.7" fill="#fff" opacity="0.85"/><circle cx="15.4" cy="582.9" r="2.9" fill="url(#beadW)"/><circle cx="14.4" cy="581.7" r="0.6" fill="#fff" opacity="0.85"/><circle cx="278.8" cy="92.9" r="6" fill="url(#beadW)"/><circle cx="276.7" cy="90.5" r="1.3" fill="#fff" opacity="0.85"/><circle cx="39.7" cy="631.8" r="3.7" fill="url(#beadW)"/><circle cx="38.4" cy="630.3" r="0.8" fill="#fff" opacity="0.85"/><circle cx="591" cy="160.8" r="3" fill="url(#beadW)"/><circle cx="590" cy="159.6" r="0.7" fill="#fff" opacity="0.85"/><circle cx="89.8" cy="329.3" r="3.5" fill="url(#beadW)"/><circle cx="88.6" cy="327.9" r="0.8" fill="#fff" opacity="0.85"/><circle cx="632.5" cy="148.6" r="6.8" fill="url(#beadW)"/><circle cx="630.2" cy="145.9" r="1.5" fill="#fff" opacity="0.85"/><circle cx="743.1" cy="782" r="8.4" fill="url(#beadW)"/><circle cx="740.2" cy="778.6" r="1.8" fill="#fff" opacity="0.85"/><circle cx="718.1" cy="662.4" r="8.5" fill="url(#beadW)"/><circle cx="715.1" cy="659" r="1.9" fill="#fff" opacity="0.85"/><circle cx="98.3" cy="651.3" r="7.7" fill="url(#beadW)"/><circle cx="95.6" cy="648.2" r="1.7" fill="#fff" opacity="0.85"/><circle cx="563.8" cy="844.3" r="7.8" fill="url(#beadW)"/><circle cx="561.1" cy="841.2" r="1.7" fill="#fff" opacity="0.85"/><circle cx="632" cy="793.9" r="6.2" fill="url(#beadW)"/><circle cx="629.8" cy="791.5" r="1.4" fill="#fff" opacity="0.85"/><circle cx="566.1" cy="916.7" r="6.8" fill="url(#beadW)"/><circle cx="563.7" cy="914" r="1.5" fill="#fff" opacity="0.85"/><circle cx="659.9" cy="220.4" r="5.7" fill="url(#beadW)"/><circle cx="657.9" cy="218.2" r="1.2" fill="#fff" opacity="0.85"/><circle cx="111.7" cy="664.1" r="8.4" fill="url(#beadW)"/><circle cx="108.7" cy="660.7" r="1.9" fill="#fff" opacity="0.85"/><circle cx="323.3" cy="877.5" r="4.8" fill="url(#beadW)"/><circle cx="321.6" cy="875.6" r="1" fill="#fff" opacity="0.85"/><circle cx="271.5" cy="134.4" r="4.3" fill="url(#beadW)"/><circle cx="270" cy="132.7" r="0.9" fill="#fff" opacity="0.85"/><circle cx="706.2" cy="353.4" r="3.3" fill="url(#beadW)"/><circle cx="705" cy="352.1" r="0.7" fill="#fff" opacity="0.85"/><circle cx="196.4" cy="858.4" r="3.6" fill="url(#beadW)"/><circle cx="195.2" cy="856.9" r="0.8" fill="#fff" opacity="0.85"/><circle cx="827" cy="467" r="7.8" fill="url(#beadW)"/><circle cx="824.3" cy="463.9" r="1.7" fill="#fff" opacity="0.85"/><circle cx="303.8" cy="114.8" r="8.2" fill="url(#beadW)"/><circle cx="300.9" cy="111.5" r="1.8" fill="#fff" opacity="0.85"/><circle cx="201.7" cy="812.2" r="7.8" fill="url(#beadW)"/><circle cx="199" cy="809.1" r="1.7" fill="#fff" opacity="0.85"/><circle cx="630.9" cy="132.7" r="6.3" fill="url(#beadW)"/><circle cx="628.7" cy="130.2" r="1.4" fill="#fff" opacity="0.85"/><circle cx="609.4" cy="783.4" r="3.2" fill="url(#beadW)"/><circle cx="608.3" cy="782.1" r="0.7" fill="#fff" opacity="0.85"/><circle cx="403.5" cy="166.3" r="6.8" fill="url(#beadW)"/><circle cx="401.1" cy="163.5" r="1.5" fill="#fff" opacity="0.85"/><circle cx="784.9" cy="433.6" r="7" fill="url(#beadW)"/><circle cx="782.4" cy="430.8" r="1.5" fill="#fff" opacity="0.85"/><circle cx="80.7" cy="658.1" r="5.8" fill="url(#beadW)"/><circle cx="78.7" cy="655.8" r="1.3" fill="#fff" opacity="0.85"/><circle cx="51.7" cy="534.5" r="5.2" fill="url(#beadW)"/><circle cx="49.9" cy="532.5" r="1.1" fill="#fff" opacity="0.85"/><circle cx="33.7" cy="621.2" r="7.7" fill="url(#beadW)"/><circle cx="31" cy="618.1" r="1.7" fill="#fff" opacity="0.85"/><circle cx="68.5" cy="210.6" r="7" fill="url(#beadW)"/><circle cx="66.1" cy="207.8" r="1.5" fill="#fff" opacity="0.85"/><circle cx="325.7" cy="932.1" r="3.7" fill="url(#beadW)"/><circle cx="324.4" cy="930.6" r="0.8" fill="#fff" opacity="0.85"/><circle cx="629.4" cy="261.4" r="3.2" fill="url(#beadW)"/><circle cx="628.2" cy="260.1" r="0.7" fill="#fff" opacity="0.85"/><circle cx="401.6" cy="936.5" r="8.2" fill="url(#beadW)"/><circle cx="398.8" cy="933.2" r="1.8" fill="#fff" opacity="0.85"/><circle cx="222.8" cy="802.2" r="4.8" fill="url(#beadW)"/><circle cx="221.1" cy="800.3" r="1.1" fill="#fff" opacity="0.85"/><circle cx="441.2" cy="889.4" r="7.5" fill="url(#beadW)"/><circle cx="438.5" cy="886.4" r="1.7" fill="#fff" opacity="0.85"/><circle cx="85.8" cy="796.3" r="4.5" fill="url(#beadW)"/><circle cx="84.2" cy="794.5" r="1" fill="#fff" opacity="0.85"/><circle cx="333.8" cy="109.8" r="3" fill="url(#beadW)"/><circle cx="332.8" cy="108.6" r="0.7" fill="#fff" opacity="0.85"/><circle cx="663" cy="197" r="7" fill="url(#beadW)"/><circle cx="660.6" cy="194.2" r="1.5" fill="#fff" opacity="0.85"/><circle cx="726.6" cy="797.5" r="5.9" fill="url(#beadW)"/><circle cx="724.5" cy="795.1" r="1.3" fill="#fff" opacity="0.85"/><circle cx="77.8" cy="374" r="7.4" fill="url(#beadW)"/><circle cx="75.2" cy="371.1" r="1.6" fill="#fff" opacity="0.85"/><circle cx="-19.8" cy="361.1" r="7.1" fill="url(#beadW)"/><circle cx="-22.3" cy="358.2" r="1.6" fill="#fff" opacity="0.85"/><circle cx="745.9" cy="533.7" r="5.1" fill="url(#beadW)"/><circle cx="744.1" cy="531.7" r="1.1" fill="#fff" opacity="0.85"/><circle cx="42.9" cy="743.5" r="5.9" fill="url(#beadW)"/><circle cx="40.8" cy="741.1" r="1.3" fill="#fff" opacity="0.85"/><circle cx="160" cy="780.2" r="4.6" fill="url(#beadW)"/><circle cx="158.4" cy="778.3" r="1" fill="#fff" opacity="0.85"/><circle cx="438.1" cy="58.1" r="3.4" fill="url(#beadW)"/><circle cx="437" cy="56.8" r="0.7" fill="#fff" opacity="0.85"/><circle cx="785.2" cy="455.2" r="3.4" fill="url(#beadW)"/><circle cx="784" cy="453.9" r="0.7" fill="#fff" opacity="0.85"/><circle cx="618.7" cy="843.2" r="3.7" fill="url(#beadW)"/><circle cx="617.4" cy="841.7" r="0.8" fill="#fff" opacity="0.85"/><circle cx="512.4" cy="77.4" r="6.3" fill="url(#beadW)"/><circle cx="510.2" cy="74.8" r="1.4" fill="#fff" opacity="0.85"/><circle cx="830.5" cy="592.4" r="6.6" fill="url(#beadW)"/><circle cx="828.2" cy="589.8" r="1.4" fill="#fff" opacity="0.85"/><circle cx="-21" cy="533.9" r="4.2" fill="url(#beadW)"/><circle cx="-22.5" cy="532.2" r="0.9" fill="#fff" opacity="0.85"/><circle cx="463.4" cy="101.2" r="2.7" fill="url(#beadW)"/><circle cx="462.4" cy="100.1" r="0.6" fill="#fff" opacity="0.85"/><circle cx="43.7" cy="339.5" r="6.2" fill="url(#beadW)"/><circle cx="41.5" cy="337" r="1.4" fill="#fff" opacity="0.85"/><circle cx="58.6" cy="485.7" r="7.6" fill="url(#beadW)"/><circle cx="56" cy="482.7" r="1.7" fill="#fff" opacity="0.85"/><circle cx="220.3" cy="845.6" r="6.7" fill="url(#beadW)"/><circle cx="218" cy="842.9" r="1.5" fill="#fff" opacity="0.85"/><circle cx="157.7" cy="245.3" r="4.4" fill="url(#beadW)"/><circle cx="156.1" cy="243.5" r="1" fill="#fff" opacity="0.85"/><circle cx="730.6" cy="666.2" r="7.6" fill="url(#beadW)"/><circle cx="728" cy="663.2" r="1.7" fill="#fff" opacity="0.85"/><circle cx="-36.7" cy="565.8" r="2.5" fill="url(#beadW)"/><circle cx="-37.6" cy="564.8" r="0.6" fill="#fff" opacity="0.85"/><circle cx="277.7" cy="857.4" r="6.8" fill="url(#beadW)"/><circle cx="275.3" cy="854.7" r="1.5" fill="#fff" opacity="0.85"/><circle cx="48.8" cy="306.8" r="3" fill="url(#beadW)"/><circle cx="47.7" cy="305.6" r="0.7" fill="#fff" opacity="0.85"/><circle cx="306.3" cy="848.3" r="3.3" fill="url(#beadW)"/><circle cx="305.1" cy="847" r="0.7" fill="#fff" opacity="0.85"/><circle cx="231.8" cy="115" r="5.5" fill="url(#beadW)"/><circle cx="229.9" cy="112.8" r="1.2" fill="#fff" opacity="0.85"/><circle cx="408.6" cy="912.9" r="8.3" fill="url(#beadW)"/><circle cx="405.7" cy="909.6" r="1.8" fill="#fff" opacity="0.85"/><circle cx="660.5" cy="739.6" r="8.4" fill="url(#beadW)"/><circle cx="657.6" cy="736.3" r="1.8" fill="#fff" opacity="0.85"/><circle cx="348.2" cy="143.7" r="6.9" fill="url(#beadW)"/><circle cx="345.8" cy="140.9" r="1.5" fill="#fff" opacity="0.85"/><circle cx="483.5" cy="922.2" r="4.7" fill="url(#beadW)"/><circle cx="481.8" cy="920.3" r="1" fill="#fff" opacity="0.85"/><circle cx="279" cy="827.1" r="7" fill="url(#beadW)"/><circle cx="276.5" cy="824.3" r="1.5" fill="#fff" opacity="0.85"/><circle cx="155.5" cy="850.6" r="5.9" fill="url(#beadW)"/><circle cx="153.4" cy="848.2" r="1.3" fill="#fff" opacity="0.85"/>
  <circle cx="400" cy="500" r="305" fill="url(#barrel)"/>
  <g clip-path="url(#inside)">
    <circle cx="400" cy="500" r="232" fill="url(#disc)"/>
    <g fill="#1b1b1b"><circle cx="604.7" cy="510.7" r="5.2"/><circle cx="546.2" cy="533.7" r="5.2"/><circle cx="588.7" cy="580.1" r="5.2"/><circle cx="525.8" cy="581.7" r="5.2"/><circle cx="549.9" cy="639.8" r="5.2"/><circle cx="490.3" cy="619.8" r="5.2"/><circle cx="493.1" cy="682.7" r="5.2"/><circle cx="443.9" cy="643.4" r="5.2"/><circle cx="425" cy="703.5" r="5.2"/><circle cx="392.1" cy="649.8" r="5.2"/><circle cx="353.9" cy="699.7" r="5.2"/><circle cx="341.4" cy="638.1" r="5.2"/><circle cx="288.3" cy="671.9" r="5.2"/><circle cx="297.7" cy="609.7" r="5.2"/><circle cx="236.3" cy="623.4" r="5.2"/><circle cx="266.3" cy="568.1" r="5.2"/><circle cx="204" cy="559.9" r="5.2"/><circle cx="251.1" cy="518.3" r="5.2"/><circle cx="195.3" cy="489.3" r="5.2"/><circle cx="253.8" cy="466.3" r="5.2"/><circle cx="211.3" cy="419.9" r="5.2"/><circle cx="274.2" cy="418.3" r="5.2"/><circle cx="250.1" cy="360.2" r="5.2"/><circle cx="309.7" cy="380.2" r="5.2"/><circle cx="306.9" cy="317.3" r="5.2"/><circle cx="356.1" cy="356.6" r="5.2"/><circle cx="375" cy="296.5" r="5.2"/><circle cx="407.9" cy="350.2" r="5.2"/><circle cx="446.1" cy="300.3" r="5.2"/><circle cx="458.6" cy="361.9" r="5.2"/><circle cx="511.7" cy="328.1" r="5.2"/><circle cx="502.3" cy="390.3" r="5.2"/><circle cx="563.7" cy="376.6" r="5.2"/><circle cx="533.7" cy="431.9" r="5.2"/><circle cx="596" cy="440.1" r="5.2"/><circle cx="548.9" cy="481.7" r="5.2"/></g>
    <circle cx="400" cy="500" r="232" fill="none" stroke="#262626" stroke-width="3"/>
    <path d="M178.9 396.9A244 244 0 0 1 316.5 270.7L333.3 350.2A164 164 0 0 0 256.6 420.5Z" fill="url(#caliper)" stroke="#cecece" stroke-opacity="0.55" stroke-width="2" stroke-linejoin="round"/>
    <path d="M422 460L413 206L387 206L378 460Z" fill="url(#spoke)"/><path d="M422 460L413 206" stroke="#fafafa" stroke-opacity="0.8" stroke-width="2" fill="none"/><path d="M378 460L387 206" stroke="#080808" stroke-opacity="0.7" stroke-width="2" fill="none"/><path d="M444.8 508.6L683.6 421.5L675.6 396.8L431.2 466.7Z" fill="url(#spoke)"/><path d="M444.8 508.6L683.6 421.5" stroke="#fafafa" stroke-opacity="0.8" stroke-width="2" fill="none"/><path d="M431.2 466.7L675.6 396.8" stroke="#080808" stroke-opacity="0.7" stroke-width="2" fill="none"/><path d="M405.7 545.3L562.3 745.5L583.3 730.2L441.3 519.4Z" fill="url(#spoke)"/><path d="M405.7 545.3L562.3 745.5" stroke="#fafafa" stroke-opacity="0.8" stroke-width="2" fill="none"/><path d="M441.3 519.4L583.3 730.2" stroke="#080808" stroke-opacity="0.7" stroke-width="2" fill="none"/><path d="M358.7 519.4L216.7 730.2L237.7 745.5L394.3 545.3Z" fill="url(#spoke)"/><path d="M358.7 519.4L216.7 730.2" stroke="#fafafa" stroke-opacity="0.8" stroke-width="2" fill="none"/><path d="M394.3 545.3L237.7 745.5" stroke="#080808" stroke-opacity="0.7" stroke-width="2" fill="none"/><path d="M368.8 466.7L124.4 396.8L116.4 421.5L355.2 508.6Z" fill="url(#spoke)"/><path d="M368.8 466.7L124.4 396.8" stroke="#fafafa" stroke-opacity="0.8" stroke-width="2" fill="none"/><path d="M355.2 508.6L116.4 421.5" stroke="#080808" stroke-opacity="0.7" stroke-width="2" fill="none"/>
  </g>
  <circle cx="400" cy="500" r="298" fill="none" stroke="#B9C5D9" stroke-opacity="0.55" stroke-width="9"/>
  <circle cx="400" cy="500" r="66" fill="url(#hub)"/>
  <circle cx="423.5" cy="467.6" r="8.5" fill="#101010" stroke="#aaaaaa" stroke-opacity="0.7" stroke-width="1.5"/><circle cx="438" cy="512.4" r="8.5" fill="#101010" stroke="#aaaaaa" stroke-opacity="0.7" stroke-width="1.5"/><circle cx="400" cy="540" r="8.5" fill="#101010" stroke="#aaaaaa" stroke-opacity="0.7" stroke-width="1.5"/><circle cx="362" cy="512.4" r="8.5" fill="#101010" stroke="#aaaaaa" stroke-opacity="0.7" stroke-width="1.5"/><circle cx="376.5" cy="467.6" r="8.5" fill="#101010" stroke="#aaaaaa" stroke-opacity="0.7" stroke-width="1.5"/>
  <circle cx="400" cy="500" r="22" fill="#101010" stroke="#b9b9b9" stroke-opacity="0.8" stroke-width="2"/>
  <circle cx="400" cy="500" r="301" fill="none" stroke="#f3f3f3" stroke-opacity="0.85" stroke-width="3.5" stroke-dasharray="520 1400" transform="rotate(-150 400 500)"/>
  <rect width="800" height="1000" fill="url(#spot)"/>
</svg>
